<svg width="12" height="20" viewBox="0 0 12 20" fill="none" xmlns="http://www.w3.org/2000/svg">
<path d="M3.55001 10.0001L10.9 17.3501C11.15 17.6001 11.2708 17.8918 11.2625 18.2251C11.2542 18.5584 11.125 18.8501 10.875 19.1001C10.625 19.3501 10.3333 19.4751 10 19.4751C9.66668 19.4751 9.37501 19.3501 9.12501 19.1001L1.42501 11.4251C1.22501 11.2251 1.07501 11.0001 0.975012 10.7501C0.875012 10.5001 0.825012 10.2501 0.825012 10.0001C0.825012 9.75011 0.875012 9.50011 0.975012 9.25011C1.07501 9.00011 1.22501 8.77511 1.42501 8.57511L9.12501 0.87511C9.37501 0.62511 9.67085 0.504277 10.0125 0.51261C10.3542 0.520944 10.65 0.65011 10.9 0.90011C11.15 1.15011 11.275 1.44178 11.275 1.77511C11.275 2.10844 11.15 2.40011 10.9 2.65011L3.55001 10.0001Z" fill="#25355B"/>
</svg>
