<svg width="30" height="30" viewBox="0 0 30 30" fill="none" xmlns="http://www.w3.org/2000/svg">
<g clip-path="url(#clip0_160_208)">
<path d="M15 2.5C12.6793 2.5 10.4537 3.42187 8.81279 5.06282C7.17185 6.70376 6.24997 8.92936 6.24997 11.25V15.66C6.25015 15.8539 6.20522 16.0452 6.11872 16.2188L3.97247 20.51C3.86763 20.7197 3.81813 20.9526 3.82866 21.1868C3.83919 21.421 3.90941 21.6485 4.03266 21.8479C4.1559 22.0473 4.32806 22.2119 4.53281 22.326C4.73755 22.4401 4.96807 22.5 5.20247 22.5H24.7975C25.0319 22.5 25.2624 22.4401 25.4671 22.326C25.6719 22.2119 25.8441 22.0473 25.9673 21.8479C26.0905 21.6485 26.1608 21.421 26.1713 21.1868C26.1818 20.9526 26.1323 20.7197 26.0275 20.51L23.8825 16.2188C23.7955 16.0453 23.7502 15.854 23.75 15.66V11.25C23.75 8.92936 22.8281 6.70376 21.1872 5.06282C19.5462 3.42187 17.3206 2.5 15 2.5ZM15 26.25C14.2242 26.2502 13.4674 26.0099 12.8339 25.5622C12.2004 25.1145 11.7212 24.4813 11.4625 23.75H18.5375C18.2787 24.4813 17.7996 25.1145 17.166 25.5622C16.5325 26.0099 15.7757 26.2502 15 26.25Z" fill="#969696"/>
</g>
<defs>
<clipPath id="clip0_160_208">
<rect width="30" height="30" fill="white"/>
</clipPath>
</defs>
</svg>
