<svg width="18" height="18" viewBox="0 0 24 24" fill="none" xmlns="http://www.w3.org/2000/svg">
<path d="M8 5.5L8.22147 4.1712C8.3822 3.20683 9.21658 2.5 10.1943 2.5L13.8057 2.5C14.7834 2.5 15.6178 3.20683 15.7785 4.1712L16 5.5" stroke="green" stroke-width="1.5" stroke-linecap="round"/>
<path d="M8 5.5H4C2.89543 5.5 2 6.39543 2 7.5V19.5C2 20.6046 2.89543 21.5 4 21.5H20C21.1046 21.5 22 20.6046 22 19.5V7.5C22 6.39543 21.1046 5.5 20 5.5H16" stroke="green" stroke-width="1.5" stroke-linecap="round"/>
<path d="M16.2106 13.5833C16.2106 11.2514 14.3255 9.36108 12.0001 9.36108C9.67467 9.36108 7.78955 11.2514 7.78955 13.5833C7.78955 15.9152 9.67467 17.8055 12.0001 17.8055C14.3255 17.8055 16.2106 15.9152 16.2106 13.5833Z" stroke="green" stroke-width="1.5"/>
</svg>

