<svg width="85" height="85" viewBox="0 0 85 85" fill="none" xmlns="http://www.w3.org/2000/svg">
<path d="M42.7516 84.9996C53.6941 84.8942 64.5279 80.3653 72.318 72.6737C81.57 63.5386 86.3354 50.0217 84.6734 37.1186C81.8247 15.0051 63.6312 0 42.4783 0C26.4081 0 10.7879 10.044 3.93716 24.6089C-1.30778 35.7595 -1.317 49.2209 3.93716 60.3916C10.7394 74.8532 26.1027 84.8445 42.2049 84.9996C42.3871 85.0001 42.5694 85.0001 42.7516 84.9996ZM42.2505 77.9161C25.9056 77.7586 10.6564 65.1306 7.62451 48.9401C5.48697 37.5251 9.52224 25.1725 17.9278 17.0665C27.7431 7.60099 43.1679 4.42959 55.9933 9.79524C67.4697 14.5967 76.0585 25.7424 77.6413 38.0232C78.9979 48.5491 75.2171 59.5807 67.7873 67.18C61.2709 73.8449 52.1316 77.8252 42.706 77.9161C42.5541 77.9166 42.4024 77.9166 42.2505 77.9161Z" fill="white" fill-opacity="0.56"/>
<path d="M42.484 72.4695C59.0719 72.4695 72.5191 59.0343 72.5191 42.4611C72.5191 25.8879 59.0719 12.4526 42.484 12.4526C25.896 12.4526 12.4488 25.8879 12.4488 42.4611C12.4488 59.0343 25.896 72.4695 42.484 72.4695Z" fill="white"/>
</svg>
