<svg width="24" height="24" viewBox="0 0 24 24" fill="none" xmlns="http://www.w3.org/2000/svg">
<g clip-path="url(#clip0_701_4048)">
<path d="M20.3201 9H5.32007C5.18746 9 5.06028 9.05268 4.96651 9.14645C4.87275 9.24021 4.82007 9.36739 4.82007 9.5V22C4.82007 22.5304 5.03078 23.0391 5.40585 23.4142C5.78093 23.7893 6.28964 24 6.82007 24H18.8201C19.3505 24 19.8592 23.7893 20.2343 23.4142C20.6094 23.0391 20.8201 22.5304 20.8201 22V9.5C20.8175 9.36819 20.764 9.2425 20.6708 9.14928C20.5776 9.05606 20.4519 9.00256 20.3201 9ZM11.0701 20.5C11.0701 20.6989 10.9911 20.8897 10.8504 21.0303C10.7097 21.171 10.519 21.25 10.3201 21.25C10.1212 21.25 9.93039 21.171 9.78974 21.0303C9.64909 20.8897 9.57007 20.6989 9.57007 20.5V13C9.57007 12.8011 9.64909 12.6103 9.78974 12.4697C9.93039 12.329 10.1212 12.25 10.3201 12.25C10.519 12.25 10.7097 12.329 10.8504 12.4697C10.9911 12.6103 11.0701 12.8011 11.0701 13V20.5ZM16.0701 20.5C16.0701 20.6989 15.9911 20.8897 15.8504 21.0303C15.7097 21.171 15.519 21.25 15.3201 21.25C15.1212 21.25 14.9304 21.171 14.7897 21.0303C14.6491 20.8897 14.5701 20.6989 14.5701 20.5V13C14.5701 12.8011 14.6491 12.6103 14.7897 12.4697C14.9304 12.329 15.1212 12.25 15.3201 12.25C15.519 12.25 15.7097 12.329 15.8504 12.4697C15.9911 12.6103 16.0701 12.8011 16.0701 13V20.5Z" fill="white"/>
<path d="M21.63 2.5499L17 3.4499C16.9364 3.46187 16.8708 3.44877 16.8167 3.41334C16.7626 3.37792 16.7244 3.32292 16.71 3.2599L16.43 1.9999C16.3724 1.67547 16.2507 1.36577 16.0721 1.08888C15.8934 0.812003 15.6614 0.573495 15.3896 0.387295C15.1177 0.201095 14.8115 0.0709356 14.4888 0.0044215C14.166 -0.0620926 13.8333 -0.0636281 13.51 -9.51663e-05L8.59997 0.999905C8.27513 1.05868 7.96522 1.18146 7.68827 1.36111C7.41132 1.54075 7.17286 1.77367 6.98675 2.04632C6.80064 2.31897 6.6706 2.62591 6.6042 2.94927C6.5378 3.27264 6.53636 3.60598 6.59997 3.9299L6.82997 5.1599C6.84194 5.22343 6.82883 5.28912 6.79341 5.34319C6.75798 5.39726 6.70299 5.43551 6.63997 5.4499L1.99997 6.3499C1.87048 6.37393 1.74702 6.42329 1.63666 6.49516C1.5263 6.56703 1.43123 6.65999 1.35689 6.7687C1.28256 6.87741 1.23043 6.99974 1.2035 7.12865C1.17657 7.25756 1.17537 7.39053 1.19997 7.5199C1.25079 7.77959 1.40246 8.00855 1.62176 8.15662C1.84106 8.30469 2.11011 8.35981 2.36997 8.30991L22 4.5199C22.2652 4.46951 22.4995 4.31583 22.6514 4.09266C22.8033 3.86949 22.8604 3.59512 22.81 3.3299C22.7596 3.06469 22.6059 2.83035 22.3827 2.67845C22.1596 2.52654 21.8852 2.46951 21.62 2.5199L21.63 2.5499ZM8.62997 3.5499C8.616 3.42918 8.64559 3.30743 8.71343 3.2066C8.78127 3.10576 8.88288 3.03246 8.99997 2.9999L13.91 1.9999C14.0399 1.97653 14.1737 2.00546 14.2824 2.08039C14.391 2.15533 14.4657 2.27018 14.49 2.3999L14.73 3.6299C14.7417 3.69485 14.7272 3.76179 14.6897 3.81612C14.6523 3.87044 14.5948 3.90775 14.53 3.9199L9.10997 4.9999C9.07841 5.0072 9.0457 5.00803 9.0138 5.00234C8.98191 4.99665 8.9515 4.98457 8.92441 4.96682C8.89731 4.94906 8.87409 4.92601 8.85614 4.89904C8.83819 4.87208 8.82589 4.84175 8.81997 4.8099L8.62997 3.5499Z" fill="white"/>
</g>
<defs>
<clipPath id="clip0_701_4048">
<rect width="24" height="24" fill="white"/>
</clipPath>
</defs>
</svg>
