<svg width="30" height="30" viewBox="0 0 30 30" fill="none" xmlns="http://www.w3.org/2000/svg">
<mask id="mask0_1456_4989" style="mask-type:alpha" maskUnits="userSpaceOnUse" x="0" y="0" width="30" height="30">
<rect width="30" height="30" fill="#D9D9D9"/>
</mask>
<g mask="url(#mask0_1456_4989)">
<path d="M7.5 15.0625C7.5 15.4167 7.52604 15.7604 7.57812 16.0938C7.63021 16.4271 7.70833 16.7604 7.8125 17.0938C7.91667 17.4479 7.92708 17.8073 7.84375 18.1719C7.76042 18.5365 7.58333 18.8542 7.3125 19.125C7.08333 19.3542 6.80729 19.4583 6.48438 19.4375C6.16146 19.4167 5.9375 19.2604 5.8125 18.9688C5.54167 18.3438 5.33854 17.7031 5.20313 17.0469C5.06771 16.3906 5 15.7292 5 15.0625C5 12.2708 5.96875 9.89583 7.90625 7.9375C9.84375 5.97917 12.2083 5 15 5H15.2188L14.0938 3.875C13.8646 3.64583 13.75 3.35417 13.75 3C13.75 2.64583 13.8646 2.35417 14.0938 2.125C14.3229 1.89583 14.6146 1.78125 14.9688 1.78125C15.3229 1.78125 15.6146 1.89583 15.8438 2.125L19.0938 5.375C19.3438 5.625 19.4688 5.91667 19.4688 6.25C19.4688 6.58333 19.3438 6.875 19.0938 7.125L15.8438 10.375C15.6146 10.6042 15.3229 10.7188 14.9688 10.7188C14.6146 10.7188 14.3229 10.6042 14.0938 10.375C13.8646 10.1458 13.75 9.85417 13.75 9.5C13.75 9.14583 13.8646 8.85417 14.0938 8.625L15.2188 7.5H15C12.9167 7.5 11.1458 8.23438 9.6875 9.70312C8.22917 11.1719 7.5 12.9583 7.5 15.0625ZM22.5 14.9375C22.5 14.5833 22.474 14.2396 22.4219 13.9062C22.3698 13.5729 22.2917 13.2396 22.1875 12.9063C22.0833 12.5521 22.0729 12.1927 22.1562 11.8281C22.2396 11.4635 22.4167 11.1458 22.6875 10.875C22.9167 10.6458 23.1927 10.5417 23.5156 10.5625C23.8385 10.5833 24.0625 10.7396 24.1875 11.0312C24.4583 11.6562 24.6615 12.2969 24.7969 12.9531C24.9323 13.6094 25 14.2708 25 14.9375C25 17.7292 24.0312 20.1042 22.0938 22.0625C20.1562 24.0208 17.7917 25 15 25H14.7812L15.9062 26.125C16.1354 26.3542 16.25 26.6458 16.25 27C16.25 27.3542 16.1354 27.6458 15.9062 27.875C15.6771 28.1042 15.3854 28.2188 15.0313 28.2188C14.6771 28.2188 14.3854 28.1042 14.1562 27.875L10.9062 24.625C10.6562 24.375 10.5312 24.0833 10.5312 23.75C10.5312 23.4167 10.6562 23.125 10.9062 22.875L14.1562 19.625C14.3854 19.3958 14.6771 19.2812 15.0313 19.2812C15.3854 19.2812 15.6771 19.3958 15.9062 19.625C16.1354 19.8542 16.25 20.1458 16.25 20.5C16.25 20.8542 16.1354 21.1458 15.9062 21.375L14.7812 22.5H15C17.0833 22.5 18.8542 21.7656 20.3125 20.2969C21.7708 18.8281 22.5 17.0417 22.5 14.9375Z" fill="#25355B"/>
</g>
</svg>
