<svg width="110" height="110" viewBox="0 0 113 111" fill="none" xmlns="http://www.w3.org/2000/svg">
<rect x="0.75" y="0.75" width="110" height="110" rx="7.25" stroke="#94A3B8" stroke-width="1.5" stroke-dasharray="6 6"/>
<mask id="mask0_1519_2734" style="mask-type:alpha" maskUnits="userSpaceOnUse" x="10" y="10" width="92" height="92">
<rect x="10" y="10" width="110" height="110" fill="#D9D9D9"/>
</mask>
<g mask="url(#mask0_1519_2734)">
<path d="M52.1667 60.8332H33.0001C31.914 60.8332 31.0036 60.4658 30.2688 59.7311C29.5341 58.9964 29.1667 58.086 29.1667 56.9998C29.1667 55.9137 29.5341 55.0033 30.2688 54.2686C31.0036 53.5339 31.914 53.1665 33.0001 53.1665H52.1667V33.9998C52.1667 32.9137 52.5341 32.0033 53.2688 31.2686C54.0036 30.5339 54.914 30.1665 56.0001 30.1665C57.0862 30.1665 57.9966 30.5339 58.7313 31.2686C59.4661 32.0033 59.8334 32.9137 59.8334 33.9998V53.1665H79.0001C80.0862 53.1665 80.9966 53.5339 81.7313 54.2686C82.4661 55.0033 82.8334 55.9137 82.8334 56.9998C82.8334 58.086 82.4661 58.9964 81.7313 59.7311C80.9966 60.4658 80.0862 60.8332 79.0001 60.8332H59.8334V79.9998C59.8334 81.086 59.4661 81.9964 58.7313 82.7311C57.9966 83.4658 57.0862 83.8332 56.0001 83.8332C54.914 83.8332 54.0036 83.4658 53.2688 82.7311C52.5341 81.9964 52.1667 81.086 52.1667 79.9998V60.8332Z" fill="#94A3B8"/>
</g>
</svg>
