<svg width="17" height="12" viewBox="0 0 17 12" fill="none" xmlns="http://www.w3.org/2000/svg">
<path d="M15.848 4.25003C15.8009 4.22282 15.7474 4.2085 15.693 4.2085C15.6386 4.2085 15.5851 4.22282 15.538 4.25003L9.66799 7.94003C9.24297 8.20835 8.75062 8.35076 8.24799 8.35076C7.74535 8.35076 7.25301 8.20835 6.82799 7.94003L0.957986 4.26003C0.91086 4.23282 0.857402 4.2185 0.802986 4.2185C0.748569 4.2185 0.695112 4.23282 0.647986 4.26003C0.602352 4.28638 0.564463 4.32428 0.53813 4.36992C0.511798 4.41556 0.497952 4.46734 0.497986 4.52003V10.2C0.497805 10.6689 0.680569 11.1193 1.00739 11.4555C1.33422 11.7916 1.77932 11.987 2.24799 12H14.248C14.7236 11.9974 15.1789 11.8066 15.5143 11.4693C15.8497 11.132 16.038 10.6757 16.038 10.2V4.51003C16.0343 4.45311 16.0145 4.39842 15.9808 4.35238C15.9472 4.30633 15.9011 4.27082 15.848 4.25003Z" fill="#64748B"/>
<path d="M7.77801 6.43C7.91908 6.51773 8.08189 6.56422 8.24801 6.56422C8.41414 6.56422 8.57694 6.51773 8.71801 6.43L15.958 1.87C15.9633 1.8591 15.9661 1.84713 15.9661 1.835C15.9661 1.82287 15.9633 1.8109 15.958 1.8C15.9586 1.3378 15.7814 0.893093 15.463 0.558C15.1447 0.222906 14.7096 0.0231095 14.248 0H2.24801C1.77236 0.00264257 1.31709 0.193451 0.981681 0.53073C0.646275 0.86801 0.458006 1.32434 0.458014 1.8C0.452708 1.8109 0.449951 1.82287 0.449951 1.835C0.449951 1.84713 0.452708 1.8591 0.458014 1.87L7.77801 6.43Z" fill="#64748B"/>
</svg>
