<svg width="24" height="24" viewBox="0 0 24 24" fill="none" xmlns="http://www.w3.org/2000/svg">
<g clip-path="url(#clip0_701_3920)">
<path d="M6.5 11C5.21442 11 3.95772 11.3812 2.8888 12.0954C1.81988 12.8097 0.986756 13.8248 0.494786 15.0126C0.00281635 16.2003 -0.125905 17.5072 0.124899 18.7681C0.375703 20.029 0.994768 21.1872 1.90381 22.0962C2.81285 23.0052 3.97104 23.6243 5.23192 23.8751C6.49279 24.1259 7.79973 23.9972 8.98744 23.5052C10.1752 23.0132 11.1903 22.1801 11.9046 21.1112C12.6188 20.0423 13 18.7856 13 17.5C12.9974 15.7769 12.3117 14.1251 11.0933 12.9067C9.87486 11.6883 8.2231 11.0026 6.5 11ZM9 17.22C8.95877 17.3042 8.89472 17.375 8.81515 17.4245C8.73559 17.474 8.64371 17.5002 8.55 17.5H7.62C7.58818 17.5 7.55765 17.5126 7.53515 17.5351C7.51265 17.5577 7.5 17.5882 7.5 17.62V20.5C7.5 20.7652 7.39465 21.0196 7.20711 21.2071C7.01957 21.3946 6.76522 21.5 6.5 21.5C6.23479 21.5 5.98043 21.3946 5.7929 21.2071C5.60536 21.0196 5.5 20.7652 5.5 20.5V17.62C5.49769 17.5889 5.48431 17.5597 5.46228 17.5377C5.44026 17.5157 5.41106 17.5023 5.38 17.5H4.5C4.40629 17.5002 4.31442 17.474 4.23485 17.4245C4.15529 17.375 4.09124 17.3042 4.05 17.22C4.01011 17.1347 3.9946 17.0401 4.00519 16.9465C4.01578 16.853 4.05206 16.7642 4.11 16.69L6.11 14.19C6.15788 14.1332 6.21758 14.0875 6.28495 14.0562C6.35231 14.0249 6.42571 14.0086 6.5 14.0086C6.5743 14.0086 6.64769 14.0249 6.71506 14.0562C6.78242 14.0875 6.84213 14.1332 6.89 14.19L8.89 16.69C8.95623 16.7591 9.00167 16.8455 9.02112 16.9392C9.04057 17.0329 9.03325 17.1302 9 17.22Z" fill="white"/>
<path d="M13.1899 6.99999C13.4842 6.99801 13.7713 6.90895 14.015 6.74403C14.2587 6.57911 14.4481 6.34572 14.5594 6.07329C14.6706 5.80086 14.6987 5.50159 14.6401 5.21322C14.5815 4.92485 14.4388 4.66029 14.23 4.45291C14.0212 4.24553 13.7557 4.10461 13.467 4.04793C13.1782 3.99124 12.8791 4.02133 12.6075 4.13439C12.3358 4.24745 12.1037 4.43843 11.9404 4.68324C11.7771 4.92804 11.6899 5.21572 11.6899 5.50999C11.6899 5.7065 11.7288 5.90107 11.8043 6.0825C11.8798 6.26393 11.9905 6.42864 12.1299 6.56713C12.2693 6.70562 12.4347 6.81516 12.6167 6.88945C12.7986 6.96374 12.9934 7.00131 13.1899 6.99999Z" fill="white"/>
<path d="M23.41 3L21 0.59C20.6266 0.214412 20.1196 0.00223279 19.59 0L8 0C7.46957 0 6.96086 0.210714 6.58579 0.585786C6.21071 0.960859 6 1.46957 6 2V9.28C6.00227 9.34389 6.028 9.4047 6.07228 9.45082C6.11655 9.49693 6.17626 9.52512 6.24 9.53C6.61 9.53 7.24 9.53 7.73 9.61C7.76447 9.61277 7.79914 9.60835 7.83182 9.59703C7.8645 9.58571 7.89448 9.56774 7.91985 9.54424C7.94523 9.52075 7.96545 9.49224 7.97925 9.46053C7.99305 9.42881 8.00011 9.39458 8 9.36V2.5C8 2.36739 8.05268 2.24021 8.14645 2.14645C8.24021 2.05268 8.36739 2 8.5 2H19.38C19.4456 1.9992 19.5106 2.01213 19.5709 2.03797C19.6311 2.0638 19.6854 2.10196 19.73 2.15L21.85 4.27C21.898 4.31465 21.9362 4.36885 21.962 4.42913C21.9879 4.48941 22.0008 4.55442 22 4.62V18C22 18.1326 21.9473 18.2598 21.8536 18.3536C21.7598 18.4473 21.6326 18.5 21.5 18.5H14.64C14.5818 18.5016 14.526 18.5234 14.4822 18.5618C14.4384 18.6001 14.4093 18.6525 14.4 18.71C14.3084 19.2071 14.1746 19.6956 14 20.17C13.985 20.207 13.9795 20.2472 13.9839 20.2869C13.9884 20.3266 14.0027 20.3646 14.0255 20.3974C14.0484 20.4301 14.079 20.4567 14.1148 20.4746C14.1505 20.4925 14.1901 20.5013 14.23 20.5H22C22.5304 20.5 23.0391 20.2893 23.4142 19.9142C23.7893 19.5391 24 19.0304 24 18.5V4.41C23.9978 3.88042 23.7856 3.37335 23.41 3Z" fill="white"/>
<path d="M20.4799 12.8999C20.4966 12.871 20.5054 12.8382 20.5054 12.8049C20.5054 12.7715 20.4966 12.7388 20.4799 12.7099L17.2299 7.53989C17.1993 7.48472 17.1543 7.43887 17.0997 7.40719C17.0452 7.3755 16.983 7.35916 16.9199 7.35989C16.8557 7.36041 16.7927 7.3772 16.7368 7.40868C16.6808 7.44015 16.6337 7.48529 16.5999 7.53989L14.7899 10.4299C14.7747 10.4586 14.7515 10.4824 14.7231 10.4983C14.6948 10.5143 14.6624 10.5218 14.6299 10.5199C14.5989 10.5211 14.5682 10.5132 14.5415 10.4972C14.5149 10.4812 14.4935 10.4578 14.4799 10.4299L13.8299 9.42989C13.7957 9.37649 13.7482 9.3328 13.6922 9.30303C13.6361 9.27326 13.5734 9.2584 13.5099 9.25989C13.4482 9.2601 13.3875 9.27577 13.3333 9.30546C13.2792 9.33516 13.2333 9.37793 13.1999 9.42989L11.9499 11.4299C11.9167 11.4747 11.8987 11.5291 11.8987 11.5849C11.8987 11.6407 11.9167 11.6951 11.9499 11.7399C12.3216 12.1063 12.6565 12.5082 12.9499 12.9399C12.9717 12.9702 13.0001 12.995 13.0331 13.0123C13.0661 13.0297 13.1027 13.0391 13.1399 13.0399H20.2199C20.273 13.0555 20.33 13.0495 20.3787 13.0233C20.4274 12.9971 20.4637 12.9527 20.4799 12.8999Z" fill="white"/>
</g>
<defs>
<clipPath id="clip0_701_3920">
<rect width="24" height="24" fill="white"/>
</clipPath>
</defs>
</svg>
