<svg width="24" height="24" viewBox="0 0 24 24" fill="none" xmlns="http://www.w3.org/2000/svg">
<g clip-path="url(#clip0_701_4052)">
<path d="M20.71 11.8501L22.77 10.1401C23.0047 9.9394 23.1718 9.67117 23.2485 9.372C23.3251 9.07283 23.3075 8.7573 23.1981 8.4685C23.0887 8.1797 22.8928 7.93171 22.6372 7.75838C22.3816 7.58505 22.0788 7.49483 21.77 7.50006H15.71C15.6072 7.50001 15.507 7.46831 15.4229 7.40926C15.3388 7.35022 15.2749 7.26669 15.24 7.17006L13.05 1.00006C12.943 0.713819 12.7511 0.467098 12.5 0.292913C12.2489 0.118729 11.9506 0.0253906 11.645 0.0253906C11.3394 0.0253906 11.0411 0.118729 10.79 0.292913C10.5389 0.467098 10.347 0.713819 10.24 1.00006L8.05998 7.17006C8.02505 7.26669 7.96118 7.35022 7.87709 7.40926C7.79299 7.46831 7.69274 7.50001 7.58998 7.50006H1.49998C1.19051 7.50093 0.888884 7.5975 0.636452 7.77653C0.384019 7.95556 0.193141 8.20828 0.0899841 8.50006C-0.0136473 8.79116 -0.0260942 9.10694 0.0543022 9.4053C0.134699 9.70366 0.30412 9.97043 0.539984 10.1701L5.71998 14.4701C5.79782 14.5336 5.85471 14.6191 5.88325 14.7154C5.91179 14.8117 5.91065 14.9144 5.87998 15.0101L3.69998 21.5201C3.60008 21.8209 3.59808 22.1457 3.69427 22.4478C3.79046 22.7499 3.9799 23.0138 4.23538 23.2015C4.49086 23.3892 4.79926 23.4912 5.11629 23.4927C5.43332 23.4942 5.74269 23.3953 5.99998 23.2101L11.26 19.3501C11.5622 20.37 12.1101 21.3001 12.8557 22.0589C13.6012 22.8177 14.5216 23.3819 15.5361 23.702C16.5505 24.0222 17.628 24.0884 18.674 23.895C19.7201 23.7016 20.7026 23.2544 21.5355 22.5926C22.3684 21.9309 23.0262 21.0749 23.4511 20.0997C23.876 19.1245 24.055 18.0599 23.9726 16.9993C23.8901 15.9387 23.5485 14.9146 22.978 14.0169C22.4074 13.1191 21.6252 12.375 20.7 11.8501H20.71ZM17.5 22.0001C16.61 22.0001 15.7399 21.7361 14.9999 21.2417C14.2599 20.7472 13.6831 20.0444 13.3425 19.2221C13.0019 18.3999 12.9128 17.4951 13.0864 16.6222C13.2601 15.7492 13.6887 14.9474 14.318 14.3181C14.9473 13.6887 15.7492 13.2602 16.6221 13.0865C17.495 12.9129 18.3998 13.002 19.2221 13.3426C20.0443 13.6832 20.7471 14.26 21.2416 15C21.7361 15.74 22 16.61 22 17.5001C21.9973 18.6927 21.5224 19.8358 20.679 20.6791C19.8357 21.5225 18.6926 21.9974 17.5 22.0001Z" fill="white"/>
<path d="M19.1701 15.7402L16.7901 18.7402L15.5301 17.4802C15.3879 17.3477 15.1999 17.2756 15.0056 17.279C14.8113 17.2824 14.6259 17.3611 14.4885 17.4985C14.3511 17.6359 14.2723 17.8213 14.2689 18.0156C14.2655 18.2099 14.3376 18.398 14.4701 18.5402L15.8201 19.9002C15.9608 20.0358 16.1283 20.1404 16.3119 20.2074C16.4955 20.2744 16.6911 20.3021 16.8861 20.289C17.0811 20.2758 17.2712 20.2219 17.4441 20.1308C17.617 20.0398 17.7689 19.9135 17.8901 19.7602L20.3301 16.7602C20.4034 16.6856 20.4604 16.5966 20.4973 16.4987C20.5342 16.4009 20.5502 16.2964 20.5443 16.192C20.5384 16.0876 20.5108 15.9855 20.4631 15.8925C20.4155 15.7994 20.3489 15.7173 20.2677 15.6514C20.1864 15.5856 20.0923 15.5375 19.9914 15.5102C19.8904 15.4829 19.7849 15.4769 19.6815 15.4928C19.5782 15.5087 19.4793 15.5461 19.3912 15.6024C19.3031 15.6588 19.2278 15.733 19.1701 15.8202V15.7402Z" fill="white"/>
</g>
<defs>
<clipPath id="clip0_701_4052">
<rect width="24" height="24" fill="white"/>
</clipPath>
</defs>
</svg>
