<svg width="25" height="24" viewBox="0 0 25 24" fill="none" xmlns="http://www.w3.org/2000/svg">
<mask id="mask0_1574_2827" style="mask-type:alpha" maskUnits="userSpaceOnUse" x="0" y="0" width="25" height="24">
<rect x="0.5" width="24" height="24" fill="#D9D9D9"/>
</mask>
<g mask="url(#mask0_1574_2827)">
<path d="M10.05 12.0001L17.4 19.3501C17.65 19.6001 17.7708 19.8918 17.7625 20.2251C17.7541 20.5584 17.625 20.8501 17.375 21.1001C17.125 21.3501 16.8333 21.4751 16.5 21.4751C16.1666 21.4751 15.875 21.3501 15.625 21.1001L7.92495 13.4251C7.72495 13.2251 7.57495 13.0001 7.47495 12.7501C7.37495 12.5001 7.32495 12.2501 7.32495 12.0001C7.32495 11.7501 7.37495 11.5001 7.47495 11.2501C7.57495 11.0001 7.72495 10.7751 7.92495 10.5751L15.625 2.87511C15.875 2.62511 16.1708 2.50428 16.5125 2.51261C16.8541 2.52094 17.15 2.65011 17.4 2.90011C17.65 3.15011 17.775 3.44178 17.775 3.77511C17.775 4.10844 17.65 4.40011 17.4 4.65011L10.05 12.0001Z" fill="#0C4DA2"/>
</g>
</svg>
