<svg width="25" height="24" viewBox="0 0 25 24" fill="none" xmlns="http://www.w3.org/2000/svg">
<path d="M14.5 10V17M10.5 10L10.5 17M4.5 6H20.5M18.5 6V17.8C18.5 18.9201 18.5002 19.4802 18.2822 19.908C18.0905 20.2844 17.7841 20.5902 17.4078 20.782C16.98 21 16.4203 21 15.3002 21H9.7002C8.58009 21 8.01962 21 7.5918 20.782C7.21547 20.5902 6.90973 20.2844 6.71799 19.908C6.5 19.4802 6.5 18.9201 6.5 17.8V6H18.5ZM16.5 6H8.5C8.5 5.06812 8.5 4.60216 8.65224 4.23462C8.85523 3.74456 9.24432 3.35523 9.73438 3.15224C10.1019 3 10.5681 3 11.5 3H13.5C14.4319 3 14.8978 3 15.2654 3.15224C15.7554 3.35523 16.1447 3.74456 16.3477 4.23462C16.4999 4.60216 16.5 5.06812 16.5 6Z" stroke="#0C4DA2" stroke-width="2" stroke-linecap="round" stroke-linejoin="round"/>
</svg>
