<svg width="24" height="24" viewBox="0 0 24 24" fill="none" xmlns="http://www.w3.org/2000/svg">
<g clip-path="url(#clip0_701_3928)">
<path d="M12.6101 17.14C12.7899 16.9648 12.9143 16.7405 12.9676 16.4951C13.021 16.2497 13.001 15.9941 12.9101 15.76C12.8138 15.5306 12.6508 15.3354 12.4421 15.1998C12.2335 15.0643 11.9889 14.9947 11.7401 15H9.24009C9.18962 15.0022 9.13967 14.989 9.09682 14.9622C9.05398 14.9355 9.02025 14.8963 9.00009 14.85L7.66009 11.73C7.55486 11.5116 7.39023 11.3273 7.18506 11.1982C6.9799 11.0691 6.7425 11.0004 6.50009 11C6.25648 11.0009 6.01794 11.0696 5.81126 11.1986C5.60458 11.3275 5.43795 11.5116 5.33009 11.73L4.00009 14.85C3.98058 14.8947 3.9484 14.9328 3.90753 14.9594C3.86666 14.9861 3.81889 15.0002 3.77009 15H1.26009C1.01105 14.9933 0.765839 15.0624 0.556913 15.1981C0.347988 15.3338 0.1852 15.5297 0.0900927 15.76C-0.00186732 15.9971 -0.020529 16.2563 0.036524 16.5042C0.0935771 16.752 0.223717 16.977 0.410093 17.15L2.60009 19.15C2.64011 19.1853 2.6683 19.2321 2.68082 19.284C2.69335 19.3358 2.6896 19.3903 2.67009 19.44L1.44009 22.21C1.33301 22.4544 1.30629 22.7266 1.3638 22.9871C1.42131 23.2477 1.56008 23.4833 1.76009 23.66C1.96409 23.8358 2.21631 23.946 2.48388 23.9763C2.75144 24.0066 3.02193 23.9557 3.26009 23.83L6.38009 22.08C6.41531 22.0555 6.45718 22.0423 6.50009 22.0423C6.543 22.0423 6.58488 22.0555 6.62009 22.08L9.73009 23.83C9.96693 23.9667 10.2413 24.0239 10.513 23.9933C10.7848 23.9627 11.0396 23.8459 11.2401 23.66C11.4401 23.4833 11.5789 23.2477 11.6364 22.9871C11.6939 22.7266 11.6672 22.4544 11.5601 22.21L10.3301 19.4C10.3094 19.3513 10.304 19.2974 10.3148 19.2456C10.3255 19.1938 10.3518 19.1465 10.3901 19.11L12.6101 17.14Z" fill="white"/>
<path d="M14.6801 5.53997C14.6881 5.2413 14.6067 4.94705 14.4463 4.69495C14.286 4.44285 14.054 4.24438 13.7801 4.12498C13.5062 4.00558 13.2029 3.9707 12.9091 4.02479C12.6152 4.07889 12.3443 4.2195 12.1308 4.42861C11.9174 4.63772 11.7713 4.90579 11.7113 5.19847C11.6512 5.49115 11.6799 5.7951 11.7937 6.07135C11.9075 6.34761 12.1013 6.58358 12.35 6.74903C12.5988 6.91448 12.8914 7.00186 13.1901 6.99997C13.5802 7.00005 13.9547 6.84719 14.2333 6.57422C14.5118 6.30125 14.6723 5.92992 14.6801 5.53997Z" fill="white"/>
<path d="M11.12 12.8999C11.1365 12.9305 11.161 12.956 11.191 12.9737C11.221 12.9913 11.2552 13.0004 11.29 12.9999H20.29C20.3244 12.9984 20.3578 12.9885 20.3875 12.9711C20.4171 12.9536 20.442 12.9292 20.46 12.8999C20.4767 12.871 20.4855 12.8382 20.4855 12.8049C20.4855 12.7715 20.4767 12.7388 20.46 12.7099L17.23 7.53989C17.1994 7.48472 17.1544 7.43887 17.0998 7.40719C17.0452 7.3755 16.9831 7.35916 16.92 7.35989C16.8558 7.36041 16.7928 7.3772 16.7368 7.40868C16.6809 7.44015 16.6338 7.48529 16.6 7.53989L14.79 10.4299C14.7747 10.4586 14.7516 10.4824 14.7232 10.4983C14.6948 10.5143 14.6625 10.5218 14.63 10.5199C14.599 10.5211 14.5683 10.5132 14.5416 10.4972C14.515 10.4812 14.4936 10.4578 14.48 10.4299L13.83 9.42989C13.7957 9.37649 13.7483 9.3328 13.6922 9.30303C13.6362 9.27326 13.5734 9.2584 13.51 9.25989C13.4483 9.2601 13.3875 9.27577 13.3334 9.30546C13.2792 9.33516 13.2334 9.37793 13.2 9.42989L11.13 12.7399C11.1168 12.7642 11.109 12.7911 11.1073 12.8188C11.1056 12.8464 11.1099 12.8741 11.12 12.8999Z" fill="white"/>
<path d="M23.41 3L21 0.59C20.6266 0.214412 20.1196 0.00223279 19.59 0L8 0C7.46957 0 6.96086 0.210714 6.58579 0.585786C6.21071 0.960859 6 1.46957 6 2V8.79C6.00892 8.84586 6.03653 8.89705 6.0783 8.93519C6.12008 8.97333 6.17356 8.99618 6.23 9C6.71864 9.02649 7.20392 9.09677 7.68 9.21C7.71494 9.22047 7.75174 9.22316 7.78783 9.2179C7.82392 9.21263 7.85842 9.19954 7.88891 9.17953C7.9194 9.15952 7.94514 9.13308 7.96433 9.10207C7.98353 9.07105 7.9957 9.03622 8 9V2.5C8 2.36739 8.05268 2.24021 8.14645 2.14645C8.24021 2.05268 8.36739 2 8.5 2H19.38C19.4456 1.9992 19.5106 2.01213 19.5709 2.03797C19.6311 2.0638 19.6854 2.10196 19.73 2.15L21.85 4.27C21.898 4.31465 21.9362 4.36885 21.962 4.42913C21.9879 4.48941 22.0008 4.55442 22 4.62V18C22 18.1326 21.9473 18.2598 21.8536 18.3536C21.7598 18.4473 21.6326 18.5 21.5 18.5H14.16C14.1013 18.5006 14.0446 18.5218 14 18.56L12.79 19.65C12.7663 19.691 12.7538 19.7376 12.7538 19.785C12.7538 19.8324 12.7663 19.879 12.79 19.92L12.98 20.35C13.0072 20.3971 13.0467 20.436 13.0942 20.4624C13.1418 20.4888 13.1956 20.5018 13.25 20.5H22C22.5304 20.5 23.0391 20.2893 23.4142 19.9142C23.7893 19.5391 24 19.0304 24 18.5V4.41C23.9978 3.88042 23.7856 3.37335 23.41 3Z" fill="white"/>
</g>
<defs>
<clipPath id="clip0_701_3928">
<rect width="24" height="24" fill="white"/>
</clipPath>
</defs>
</svg>
