<?xml version="1.0" standalone="no"?>
<!DOCTYPE svg PUBLIC "-//W3C//DTD SVG 20010904//EN"
 "http://www.w3.org/TR/2001/REC-SVG-20010904/DTD/svg10.dtd">
<svg version="1.0" xmlns="http://www.w3.org/2000/svg"
 width="300.000000pt" height="150pt" viewBox="0 0 1369.000000 349.000000"
 preserveAspectRatio="xMidYMid meet">
<g transform="translate(0.000000,349.000000) scale(0.100000,-0.100000)"
fill="#0C4DA2" stroke="none">
<path d="M2108 3480 c-183 -29 -323 -102 -441 -230 -42 -45 -77 -102 -152
-252 -54 -106 -148 -292 -210 -413 -62 -121 -181 -355 -265 -520 -84 -165
-217 -427 -296 -581 -79 -155 -144 -285 -144 -288 0 -4 88 -5 196 -4 l195 3
108 210 c198 389 393 769 476 930 45 88 131 255 190 370 59 116 123 232 143
258 42 58 122 121 181 142 118 41 292 -4 383 -101 30 -32 37 -46 368 -699 128
-253 259 -509 290 -570 32 -60 146 -285 254 -500 219 -435 230 -466 207 -577
-32 -157 -142 -262 -315 -302 -59 -14 -248 -16 -1589 -16 l-1522 0 -83 -159
c-45 -87 -82 -164 -82 -170 0 -8 447 -11 1706 -11 1894 0 1763 -5 1894 67 176
96 310 258 354 429 19 73 22 276 5 356 -10 48 -230 496 -512 1043 -51 99 -146
284 -211 410 -65 127 -155 300 -199 385 -273 529 -269 523 -379 626 -72 67
-198 134 -285 153 -77 16 -201 21 -265 11z"/>
<path d="M2104 2966 c-16 -7 -43 -26 -58 -42 -30 -31 -39 -47 -318 -594 -99
-195 -209 -409 -243 -475 -129 -249 -335 -653 -335 -659 0 -4 88 -5 196 -4
l195 3 58 110 c31 61 99 191 150 290 100 192 178 342 271 520 32 61 72 139 91
175 48 96 67 120 94 120 28 0 34 -10 265 -465 214 -421 360 -705 452 -879 43
-81 78 -159 78 -171 0 -58 70 -55 -1315 -55 l-1271 0 -82 -168 c-45 -92 -82
-171 -82 -177 0 -7 511 -8 1523 -5 l1524 5 49 30 c70 44 107 108 112 195 3 53
0 77 -18 116 -28 63 -380 766 -390 779 -4 6 -71 136 -150 290 -79 154 -160
312 -180 350 -20 39 -92 178 -160 310 -188 368 -189 369 -262 400 -45 18 -152
19 -194 1z"/></g>
<g transform="translate(0.000000,349.000000) scale(0.100000,-0.100000)"
fill="#000000" stroke="none">
<path d="M4550 860 l0 -850 320 0 320 0 0 850 0 850 -320 0 -320 0 0 -850z"/>
<path d="M5361 1698 c0 -7 123 -389 273 -848 l272 -835 338 0 338 0 168 365
c93 201 173 371 177 379 6 10 62 -103 180 -365 l170 -379 333 0 332 0 279 840
c153 462 279 843 279 848 0 4 -147 6 -326 5 l-327 -3 -135 -473 c-74 -260
-138 -470 -141 -467 -3 4 -88 216 -187 473 l-181 467 -274 0 -273 0 -182 -470
c-101 -259 -184 -474 -186 -478 -2 -5 -57 173 -122 395 -66 222 -130 438 -143
481 l-24 77 -319 0 c-250 0 -320 -3 -319 -12z"/>
<path d="M8957 1703 c-10 -16 -739 -1659 -744 -1675 -5 -17 15 -18 321 -18
l326 0 25 55 24 55 420 0 420 0 25 -55 25 -55 331 0 c311 0 331 1 326 18 -3 9
-174 390 -380 847 l-374 830 -370 3 c-204 1 -373 -1 -375 -5z m513 -891 c66
-160 120 -296 120 -302 0 -6 -86 -10 -250 -10 -173 0 -250 3 -250 11 0 14 252
601 256 597 2 -2 57 -135 124 -296z"/>
<path d="M10600 860 l0 -850 330 0 330 0 2 202 3 202 155 128 c85 70 158 126
162 125 5 -1 115 -148 246 -327 l237 -325 408 -3 c224 -1 407 0 407 3 0 3
-169 240 -376 528 -207 287 -378 527 -381 533 -2 6 148 150 335 320 l338 309
-424 3 -424 2 -341 -294 -342 -294 -3 294 -2 294 -330 0 -330 0 0 -850z"/>
<path d="M13040 860 l0 -850 320 0 320 0 0 850 0 850 -320 0 -320 0 0 -850z"/>
</g>
</svg>
