<svg width="48" height="48" viewBox="0 0 48 48" fill="none" xmlns="http://www.w3.org/2000/svg">
	<path d="M24.1421 47.9998C30.3214 47.9403 36.4393 45.3828 40.8384 41.0392C46.0631 35.8806 48.7541 28.2476 47.8155 20.9611C46.2069 8.47345 35.9329 0 23.9877 0C14.9128 0 6.092 5.67193 2.22334 13.8968C-0.738511 20.1936 -0.743715 27.7954 2.22334 34.1035C6.06458 42.27 14.7403 47.9122 23.8334 47.9998C23.9363 48.0001 24.0392 48.0001 24.1421 47.9998ZM23.8591 43.9997C14.629 43.9108 6.01774 36.7796 4.3056 27.6368C3.09852 21.1906 5.37726 14.2151 10.1239 9.63755C15.6667 4.29232 24.3772 2.50141 31.6198 5.53143C38.1006 8.24285 42.9507 14.5369 43.8445 21.4719C44.6106 27.416 42.4756 33.6456 38.2799 37.9369C34.6 41.7006 29.439 43.9484 24.1163 43.9997C24.0306 44 23.9449 44 23.8591 43.9997Z" fill="#394B76" />
	<path d="M22.8353 25.5881V31.5529C22.8353 31.9429 22.9673 32.2698 23.2312 32.5336C23.4951 32.7974 23.8222 32.9293 24.2123 32.9293C24.6025 32.9293 24.9293 32.7974 25.1929 32.5336C25.4564 32.2698 25.5881 31.9429 25.5881 31.5529V25.5881H31.5529C31.9429 25.5881 32.2698 25.4562 32.5336 25.1923C32.7974 24.9283 32.9293 24.6013 32.9293 24.2111C32.9293 23.8209 32.7974 23.4941 32.5336 23.2306C32.2698 22.9671 31.9429 22.8353 31.5529 22.8353H25.5881V16.8705C25.5881 16.4805 25.4562 16.1536 25.1923 15.8898C24.9283 15.626 24.6013 15.4941 24.2111 15.4941C23.8209 15.4941 23.4941 15.626 23.2306 15.8898C22.9671 16.1536 22.8353 16.4805 22.8353 16.8705V22.8353H16.8705C16.4805 22.8353 16.1536 22.9673 15.8899 23.2312C15.626 23.4951 15.4941 23.8222 15.4941 24.2123C15.4941 24.6025 15.626 24.9294 15.8899 25.1929C16.1536 25.4564 16.4805 25.5881 16.8705 25.5881H22.8353ZM24.2148 41.647C21.8033 41.647 19.5367 41.1894 17.4148 40.2742C15.293 39.359 13.4472 38.1169 11.8777 36.5481C10.3081 34.9792 9.06546 33.1342 8.14987 31.0133C7.23427 28.8924 6.77647 26.6262 6.77647 24.2148C6.77647 21.8033 7.23407 19.5367 8.14927 17.4148C9.06447 15.293 10.3065 13.4472 11.8754 11.8777C13.4443 10.3081 15.2892 9.06547 17.4101 8.14987C19.531 7.23427 21.7972 6.77647 24.2086 6.77647C26.6201 6.77647 28.8868 7.23407 31.0086 8.14927C33.1305 9.06447 34.9762 10.3065 36.5458 11.8754C38.1154 13.4443 39.358 15.2892 40.2736 17.4101C41.1892 19.531 41.647 21.7972 41.647 24.2086C41.647 26.6201 41.1894 28.8867 40.2742 31.0086C39.359 33.1305 38.1169 34.9762 36.5481 36.5458C34.9792 38.1154 33.1342 39.358 31.0133 40.2736C28.8924 41.1892 26.6262 41.647 24.2148 41.647Z" fill="#394B76" />
</svg>
