<svg width="26" height="25" viewBox="0 0 26 25" fill="none" xmlns="http://www.w3.org/2000/svg">
<path d="M6.1823 24.3001C5.71564 24.3001 5.32446 24.1422 5.00877 23.8265C4.69309 23.5109 4.53524 23.1197 4.53524 22.653C4.53524 22.1863 4.69309 21.7952 5.00877 21.4795C5.32446 21.1638 5.71564 21.006 6.1823 21.006H16.2294C17.9588 21.006 19.4617 20.4569 20.7382 19.3589C22.0147 18.2609 22.6529 16.8883 22.6529 15.2412C22.6529 13.5942 22.0147 12.2216 20.7382 11.1236C19.4617 10.0256 17.9588 9.47654 16.2294 9.47654H5.85289L8.9823 12.606C9.28426 12.9079 9.43525 13.2922 9.43525 13.7589C9.43525 14.2256 9.28426 14.6099 8.9823 14.9118C8.68034 15.2138 8.29603 15.3648 7.82936 15.3648C7.3627 15.3648 6.97838 15.2138 6.67642 14.9118L0.747008 8.98242C0.582302 8.81772 0.465636 8.63929 0.397009 8.44713C0.328382 8.25497 0.294067 8.04909 0.294067 7.82948C0.294067 7.60988 0.328382 7.40399 0.397009 7.21184C0.465636 7.01968 0.582302 6.84125 0.747008 6.67654L6.67642 0.74713C6.97838 0.44517 7.3627 0.294189 7.82936 0.294189C8.29603 0.294189 8.68034 0.44517 8.9823 0.74713C9.28426 1.04909 9.43525 1.4334 9.43525 1.90007C9.43525 2.36674 9.28426 2.75105 8.9823 3.05301L5.85289 6.18242H16.2294C18.8921 6.18242 21.1774 7.04713 23.0852 8.77654C24.9931 10.506 25.947 12.6609 25.947 15.2412C25.947 17.8216 24.9931 19.9765 23.0852 21.706C21.1774 23.4354 18.8921 24.3001 16.2294 24.3001H6.1823Z" fill="#394B76"/>
</svg>
