<svg width="35" height="34" viewBox="0 0 35 34" fill="none" xmlns="http://www.w3.org/2000/svg">
	<circle cx="17.5" cy="17" r="16.5" stroke="#94A3B8" />
	<g filter="url(#filter0_d_1487_1327)">
		<path d="M16.6157 7.81994C16.9824 7.07605 18.0431 7.07605 18.4097 7.81994L19.2168 9.45747L20.6881 12.4428C20.8338 12.7383 21.1157 12.9432 21.4418 12.9904L26.5001 13.7226C27.3194 13.8412 27.6481 14.8471 27.0568 15.4265L23.3802 19.0297C23.146 19.2592 23.0392 19.5889 23.0944 19.9121L23.9618 24.9969C24.1013 25.8149 23.2412 26.4372 22.5078 26.0487L17.9809 23.6502C17.6881 23.4951 17.3374 23.4951 17.0446 23.6502L12.5176 26.0487C11.7843 26.4372 10.9241 25.8149 11.0637 24.9969L11.9308 19.9135C11.9861 19.5896 11.8786 19.2591 11.6433 19.0296L7.95153 15.4281C7.35803 14.8492 7.68639 13.841 8.50701 13.7226L13.5833 12.9902C13.9096 12.9431 14.1917 12.7382 14.3375 12.4425L16.6157 7.81994Z" stroke="#94A3B8" stroke-width="1.5" stroke-miterlimit="10" shape-rendering="crispEdges" />
	</g>
	<defs>
		<filter id="filter0_d_1487_1327" x="4.89795" y="4.51221" width="25.2108" height="24.4067" filterUnits="userSpaceOnUse" color-interpolation-filters="sRGB">
			<feFlood flood-opacity="0" result="BackgroundImageFix" />
			<feColorMatrix in="SourceAlpha" type="matrix" values="0 0 0 0 0 0 0 0 0 0 0 0 0 0 0 0 0 0 127 0" result="hardAlpha" />
			<feOffset />
			<feGaussianBlur stdDeviation="1" />
			<feComposite in2="hardAlpha" operator="out" />
			<feColorMatrix type="matrix" values="0 0 0 0 0 0 0 0 0 0 0 0 0 0 0 0 0 0 0.25 0" />
			<feBlend mode="normal" in2="BackgroundImageFix" result="effect1_dropShadow_1487_1327" />
			<feBlend mode="normal" in="SourceGraphic" in2="effect1_dropShadow_1487_1327" result="shape" />
		</filter>
	</defs>
</svg>
