<svg width="24" height="24" viewBox="0 0 24 24" fill="none" xmlns="http://www.w3.org/2000/svg">
<path d="M14.25 9.77778V17.5556M9.75 9.77778L9.75 17.5556M3 5.33333H21M18.75 5.33333V18.4444C18.75 19.689 18.7502 20.3113 18.505 20.7867C18.2893 21.2048 17.9446 21.5447 17.5213 21.7578C17.04 22 16.4103 22 15.1502 22H8.85022C7.5901 22 6.95957 22 6.47827 21.7578C6.05491 21.5447 5.71095 21.2048 5.49524 20.7867C5.25 20.3113 5.25 19.689 5.25 18.4444V5.33333H18.75ZM16.5 5.33333H7.5C7.5 4.29791 7.5 3.78018 7.67127 3.3718C7.89963 2.82729 8.33736 2.3947 8.88867 2.16916C9.30216 2 9.82663 2 10.875 2H13.125C14.1734 2 14.6976 2 15.111 2.16916C15.6624 2.3947 16.1003 2.82729 16.3286 3.3718C16.4999 3.78018 16.5 4.29791 16.5 5.33333Z" stroke="#0C4DA2" stroke-width="2" stroke-linecap="round" stroke-linejoin="round"/>
</svg>
