<svg width="16" height="16" viewBox="0 0 16 16" fill="none" xmlns="http://www.w3.org/2000/svg">
<path fill-rule="evenodd" clip-rule="evenodd" d="M4.5104 1.11602C2.4488 1.11602 1.1168 2.52962 1.1168 4.71042V11.2816C1.1168 11.8936 1.2304 12.44 1.4248 12.9128C1.43319 12.9028 1.6163 12.6797 1.85516 12.3886C2.32195 11.8197 3.00163 10.9914 3.0064 10.9872C3.56 10.3552 4.5992 9.41282 5.9632 9.98322C6.26209 10.1071 6.52777 10.2769 6.77233 10.4332C6.79615 10.4484 6.81977 10.4635 6.8432 10.4784C7.3016 10.7848 7.5712 10.9288 7.8512 10.9048C7.9672 10.8888 8.076 10.8544 8.1792 10.7904C8.5685 10.5504 9.57778 9.12033 9.88002 8.69208C9.92436 8.62927 9.95347 8.58801 9.9632 8.57522C10.8352 7.43922 12.1792 7.13522 13.2992 7.80722C13.4496 7.89682 14.5272 8.64962 14.884 8.95202V4.71042C14.884 2.52962 13.552 1.11602 11.4832 1.11602H4.5104ZM11.4832 0C14.1848 0 16 1.8896 16 4.7104V11.2816C16 11.3525 15.9925 11.4191 15.9851 11.4856C15.9799 11.5323 15.9746 11.579 15.972 11.6272C15.9703 11.6563 15.9695 11.6855 15.9686 11.7146C15.9675 11.7535 15.9664 11.7923 15.9632 11.8312C15.9616 11.8464 15.9586 11.861 15.9556 11.8756C15.9526 11.8902 15.9496 11.9048 15.948 11.92C15.9216 12.1712 15.8808 12.4112 15.824 12.644C15.8106 12.7022 15.7951 12.7583 15.7794 12.8149L15.776 12.8272C15.712 13.0528 15.6368 13.268 15.5464 13.4736C15.5306 13.5082 15.5139 13.5419 15.4971 13.5756C15.486 13.598 15.4749 13.6205 15.464 13.6432C15.3664 13.8392 15.2608 14.0272 15.1384 14.2016C15.1158 14.2339 15.0917 14.2641 15.0675 14.2945C15.0516 14.3145 15.0356 14.3345 15.02 14.3552C14.8928 14.52 14.76 14.6776 14.6096 14.8208C14.5796 14.8494 14.5471 14.8755 14.5147 14.9016C14.4944 14.9179 14.4741 14.9343 14.4544 14.9512C14.3 15.084 14.1424 15.2112 13.9688 15.32C13.9309 15.3438 13.8907 15.3638 13.8506 15.3837C13.8246 15.3965 13.7987 15.4094 13.7736 15.4232C13.5968 15.5208 13.4184 15.616 13.224 15.6896C13.1772 15.7074 13.1275 15.7202 13.0775 15.7331C13.0421 15.7423 13.0066 15.7514 12.972 15.7624C12.9547 15.7678 12.9374 15.7731 12.9201 15.7785C12.7465 15.8325 12.5734 15.8864 12.3864 15.9184C12.2781 15.9374 12.1631 15.9447 12.0481 15.952C11.9983 15.9551 11.9485 15.9583 11.8992 15.9624C11.8462 15.9664 11.7943 15.9728 11.7423 15.9792C11.6576 15.9896 11.5729 16 11.4832 16H4.5104C4.2096 16 3.9224 15.9696 3.6448 15.924L3.6152 15.9192C2.5328 15.7328 1.6344 15.2104 1.0048 14.4224C1.00043 14.4224 0.99871 14.4194 0.996423 14.4155C0.994944 14.413 0.993227 14.41 0.9904 14.4072C0.3576 13.6104 0 12.5392 0 11.2816V4.7104C0 1.8896 1.8168 0 4.5104 0H11.4832ZM7.20039 5.21167C7.20039 6.29563 6.29341 7.19971 5.20427 7.19971C4.2469 7.19971 3.43062 6.50023 3.24768 5.59461C3.21744 5.45873 3.20039 5.31899 3.20039 5.17462C3.20039 4.08293 4.08721 3.19971 5.18334 3.19971C5.74148 3.19971 6.2469 3.43441 6.60892 3.80886C6.97248 4.17018 7.20039 4.66815 7.20039 5.21167Z" fill="#6266EF"/>
</svg>
