<svg width="17" height="13" viewBox="0 0 17 13" fill="none" xmlns="http://www.w3.org/2000/svg">
<path d="M3.51783 12.4092C3.51783 12.5659 3.45607 12.7161 3.34614 12.8269C3.23621 12.9377 3.08711 13 2.93165 13C2.77618 13 2.62708 12.9377 2.51715 12.8269C2.40722 12.7161 2.34547 12.5659 2.34547 12.4092L2.34547 2.01853L1.00194 3.37393C0.891868 3.48488 0.742582 3.5472 0.586921 3.5472C0.43126 3.5472 0.281974 3.48488 0.171905 3.37393C0.0618354 3.26299 -8.60724e-07 3.11251 -8.78108e-07 2.95561C-8.95493e-07 2.79871 0.0618353 2.64824 0.171905 2.53729L2.51663 0.175089L2.52484 0.166816C2.63489 0.058645 2.7829 -0.00130678 2.93661 2.16778e-05C3.09032 0.00135013 3.23729 0.0638492 3.34549 0.173906L5.69022 2.53729C5.74472 2.59215 5.78796 2.65729 5.81749 2.72899C5.84701 2.8007 5.86224 2.87756 5.86229 2.95519C5.86235 3.03283 5.84723 3.10971 5.81781 3.18146C5.78838 3.2532 5.74523 3.31841 5.6908 3.37334C5.63638 3.42827 5.57175 3.47186 5.50062 3.50162C5.42948 3.53138 5.35322 3.54673 5.2762 3.54679C5.19918 3.54684 5.1229 3.5316 5.05172 3.50195C4.98054 3.47229 4.91586 3.42879 4.86136 3.37393L3.51783 2.01853L3.51783 12.4092ZM7.6211 11.2275C7.6211 11.3842 7.68286 11.5344 7.79279 11.6453C7.90272 11.7561 8.05181 11.8183 8.20728 11.8183L16.4138 11.8183C16.5693 11.8183 16.7184 11.7561 16.8283 11.6453C16.9382 11.5344 17 11.3842 17 11.2275C17 11.0708 16.9382 10.9205 16.8283 10.8097C16.7184 10.6989 16.5693 10.6366 16.4138 10.6366L8.20728 10.6366C8.05181 10.6366 7.90272 10.6989 7.79279 10.8097C7.68286 10.9205 7.6211 11.0708 7.6211 11.2275ZM8.20728 8.27323C8.05181 8.27323 7.90272 8.21098 7.79279 8.10017C7.68286 7.98937 7.6211 7.83908 7.6211 7.68238C7.6211 7.52568 7.68286 7.3754 7.79279 7.26459C7.90272 7.15379 8.05181 7.09154 8.20728 7.09154L14.0691 7.09153C14.2246 7.09153 14.3737 7.15378 14.4836 7.26459C14.5935 7.37539 14.6553 7.52568 14.6553 7.68238C14.6553 7.83908 14.5935 7.98937 14.4836 8.10017C14.3737 8.21098 14.2246 8.27323 14.0691 8.27323L8.20728 8.27323ZM8.20728 4.72815C8.05181 4.72815 7.90272 4.6659 7.79279 4.55509C7.68286 4.44429 7.6211 4.29401 7.6211 4.1373C7.6211 3.9806 7.68286 3.83032 7.79279 3.71951C7.90272 3.60871 8.05181 3.54646 8.20728 3.54646L11.7244 3.54646C11.8798 3.54646 12.0289 3.60871 12.1389 3.71951C12.2488 3.83032 12.3105 3.9806 12.3105 4.1373C12.3105 4.29401 12.2488 4.44429 12.1389 4.55509C12.0289 4.6659 11.8798 4.72815 11.7244 4.72815L8.20728 4.72815ZM8.20728 1.18307C8.05181 1.18307 7.90272 1.12082 7.79279 1.01002C7.68286 0.899211 7.6211 0.748927 7.6211 0.592225C7.6211 0.435523 7.68286 0.285239 7.79279 0.174433C7.90272 0.0636275 8.05181 0.00137926 8.20728 0.00137925L9.37964 0.00137915C9.53511 0.00137913 9.6842 0.0636274 9.79413 0.174433C9.90406 0.285238 9.96582 0.435523 9.96582 0.592225C9.96582 0.748927 9.90407 0.899211 9.79413 1.01002C9.6842 1.12082 9.53511 1.18307 9.37964 1.18307L8.20728 1.18307Z" fill="#053457"/>
</svg>
