
<svg width="17" height="18" viewBox="0 0 800 800" fill="none" xmlns="http://www.w3.org/2000/svg">
<path d="M341.667 139.667L87.6666 600C81.7893 610.179 78.7075 621.731 78.7336 633.484C78.7596 645.238 81.8925 656.775 87.8148 666.928C93.7371 677.08 102.238 685.487 112.456 691.295C122.675 697.103 134.247 700.106 146 700H654C665.753 700.106 677.325 697.103 687.543 691.295C697.762 685.487 706.263 677.08 712.185 666.928C718.107 656.775 721.24 645.238 721.266 633.484C721.292 621.731 718.21 610.179 712.333 600L458.333 139.667C452.568 129.247 444.117 120.562 433.858 114.513C423.6 108.465 411.909 105.275 400 105.275C388.091 105.275 376.4 108.465 366.141 114.513C355.883 120.562 347.432 129.247 341.667 139.667Z" stroke="#FFB291" stroke-width="54" stroke-linecap="round" stroke-linejoin="round"/>
<path d="M341.667 139.667L87.6666 600C81.7893 610.179 78.7075 621.731 78.7336 633.484C78.7596 645.238 81.8925 656.775 87.8148 666.928C93.7371 677.08 102.238 685.487 112.456 691.295C122.675 697.103 134.247 700.106 146 700H654C665.753 700.106 677.325 697.103 687.543 691.295C697.762 685.487 706.263 677.08 712.185 666.928C718.107 656.775 721.24 645.238 721.266 633.484C721.292 621.731 718.21 610.179 712.333 600L458.333 139.667C452.568 129.247 444.117 120.562 433.858 114.513C423.6 108.465 411.909 105.275 400 105.275C388.091 105.275 376.4 108.465 366.141 114.513C355.883 120.562 347.432 129.247 341.667 139.667Z" fill="#FF6A2B"/>
<path d="M401.667 566.666H398.333" stroke="#FFFDFD" stroke-width="83.3333" stroke-linecap="round" stroke-linejoin="round"/>
<path d="M402 310V443.333Z" fill="#FF6A2B"/>
<path d="M402 310V443.333" stroke="#FFFDFD" stroke-width="52" stroke-linecap="round" stroke-linejoin="round"/>
</svg>
