<svg width="17" height="13" viewBox="0 0 17 13" fill="none" xmlns="http://www.w3.org/2000/svg">
<path d="M3.51783 0.590846C3.51783 0.434144 3.45607 0.28386 3.34614 0.173055C3.23621 0.0622498 3.08711 0 2.93165 0C2.77618 0 2.62708 0.0622498 2.51715 0.173055C2.40722 0.28386 2.34547 0.434144 2.34547 0.590846V10.9815L1.00194 9.62607C0.891869 9.51512 0.742583 9.4528 0.586922 9.4528C0.431261 9.4528 0.281975 9.51512 0.171905 9.62607C0.0618362 9.73701 3.66751e-09 9.88749 0 10.0444C-3.66751e-09 10.2013 0.0618362 10.3518 0.171905 10.4627L2.51663 12.8249L2.52484 12.8332C2.63489 12.9414 2.7829 13.0013 2.93661 13C3.09033 12.9986 3.23729 12.9362 3.34549 12.8261L5.69022 10.4627C5.74472 10.4079 5.78796 10.3427 5.81749 10.271C5.84701 10.1993 5.86224 10.1224 5.86229 10.0448C5.86235 9.96717 5.84723 9.89029 5.81781 9.81854C5.78838 9.7468 5.74523 9.68159 5.6908 9.62666C5.63638 9.57172 5.57175 9.52814 5.50062 9.49837C5.42948 9.46861 5.35322 9.45327 5.2762 9.45321C5.19918 9.45316 5.1229 9.4684 5.05172 9.49805C4.98054 9.52771 4.91586 9.57121 4.86136 9.62607L3.51783 10.9815V0.590846ZM7.6211 1.77254C7.6211 1.61584 7.68286 1.46555 7.79279 1.35475C7.90272 1.24394 8.05182 1.18169 8.20728 1.18169H16.4138C16.5693 1.18169 16.7184 1.24394 16.8283 1.35475C16.9382 1.46555 17 1.61584 17 1.77254C17 1.92924 16.9382 2.07953 16.8283 2.19033C16.7184 2.30114 16.5693 2.36339 16.4138 2.36339H8.20728C8.05182 2.36339 7.90272 2.30114 7.79279 2.19033C7.68286 2.07953 7.6211 1.92924 7.6211 1.77254ZM8.20728 4.72677C8.05182 4.72677 7.90272 4.78902 7.79279 4.89983C7.68286 5.01063 7.6211 5.16092 7.6211 5.31762C7.6211 5.47432 7.68286 5.6246 7.79279 5.73541C7.90272 5.84621 8.05182 5.90846 8.20728 5.90846H14.0691C14.2246 5.90846 14.3737 5.84621 14.4836 5.73541C14.5935 5.6246 14.6553 5.47432 14.6553 5.31762C14.6553 5.16092 14.5935 5.01063 14.4836 4.89983C14.3737 4.78902 14.2246 4.72677 14.0691 4.72677H8.20728ZM8.20728 8.27185C8.05182 8.27185 7.90272 8.3341 7.79279 8.4449C7.68286 8.55571 7.6211 8.70599 7.6211 8.8627C7.6211 9.0194 7.68286 9.16968 7.79279 9.28049C7.90272 9.39129 8.05182 9.45354 8.20728 9.45354H11.7244C11.8798 9.45354 12.0289 9.39129 12.1389 9.28049C12.2488 9.16968 12.3105 9.0194 12.3105 8.8627C12.3105 8.70599 12.2488 8.55571 12.1389 8.4449C12.0289 8.3341 11.8798 8.27185 11.7244 8.27185H8.20728ZM8.20728 11.8169C8.05182 11.8169 7.90272 11.8792 7.79279 11.99C7.68286 12.1008 7.6211 12.2511 7.6211 12.4078C7.6211 12.5645 7.68286 12.7148 7.79279 12.8256C7.90272 12.9364 8.05182 12.9986 8.20728 12.9986H9.37964C9.53511 12.9986 9.68421 12.9364 9.79414 12.8256C9.90407 12.7148 9.96582 12.5645 9.96582 12.4078C9.96582 12.2511 9.90407 12.1008 9.79414 11.99C9.68421 11.8792 9.53511 11.8169 9.37964 11.8169H8.20728Z" fill="#053457"/>
</svg>
