<svg width="20" height="17" viewBox="0 0 20 17" fill="none" xmlns="http://www.w3.org/2000/svg">
<path d="M11.4286 0C9.15529 0 6.97511 0.895533 5.36766 2.48959C3.7602 4.08365 2.85714 6.24566 2.85714 8.5H0L3.70476 12.1739L3.77143 12.3061L7.61905 8.5H4.7619C4.7619 4.845 7.74286 1.88889 11.4286 1.88889C15.1143 1.88889 18.0952 4.845 18.0952 8.5C18.0952 12.155 15.1143 15.1111 11.4286 15.1111C9.59048 15.1111 7.92381 14.365 6.72381 13.1656L5.37143 14.5067C6.16516 15.2981 7.10904 15.9259 8.14863 16.3538C9.18823 16.7818 10.303 17.0014 11.4286 17C13.7019 17 15.882 16.1045 17.4895 14.5104C19.0969 12.9163 20 10.7543 20 8.5C20 6.24566 19.0969 4.08365 17.4895 2.48959C15.882 0.895533 13.7019 3.35923e-08 11.4286 0ZM10.4762 4.72222V9.44444L14.5238 11.8244L15.2571 10.6061L11.9048 8.63222V4.72222H10.4762Z" fill="#0C4DA2"/>
</svg>
