<svg width="39" height="35" viewBox="0 0 39 35" fill="none" xmlns="http://www.w3.org/2000/svg">
<g filter="url(#filter0_d_986_8682)">
<path d="M7.20536 5.05882H11.9083L15.0436 2H24.4495L27.5848 5.05882H32.2877C33.1192 5.05882 33.9167 5.38109 34.5047 5.95473C35.0927 6.52837 35.423 7.3064 35.423 8.11765V26.4706C35.423 27.2818 35.0927 28.0599 34.5047 28.6335C33.9167 29.2071 33.1192 29.5294 32.2877 29.5294H7.20536C6.37383 29.5294 5.57636 29.2071 4.98837 28.6335C4.40039 28.0599 4.07007 27.2818 4.07007 26.4706V8.11765C4.07007 7.3064 4.40039 6.52837 4.98837 5.95473C5.57636 5.38109 6.37383 5.05882 7.20536 5.05882ZM19.7465 9.64706C17.6677 9.64706 15.674 10.4527 14.2041 11.8868C12.7341 13.3209 11.9083 15.266 11.9083 17.2941C11.9083 19.3222 12.7341 21.2673 14.2041 22.7014C15.674 24.1355 17.6677 24.9412 19.7465 24.9412C21.8254 24.9412 23.8191 24.1355 25.289 22.7014C26.759 21.2673 27.5848 19.3222 27.5848 17.2941C27.5848 15.266 26.759 13.3209 25.289 11.8868C23.8191 10.4527 21.8254 9.64706 19.7465 9.64706ZM19.7465 12.7059C20.9938 12.7059 22.19 13.1893 23.072 14.0497C23.954 14.9102 24.4495 16.0772 24.4495 17.2941C24.4495 18.511 23.954 19.678 23.072 20.5385C22.19 21.3989 20.9938 21.8824 19.7465 21.8824C18.4992 21.8824 17.303 21.3989 16.4211 20.5385C15.5391 19.678 15.0436 18.511 15.0436 17.2941C15.0436 16.0772 15.5391 14.9102 16.4211 14.0497C17.303 13.1893 18.4992 12.7059 19.7465 12.7059Z" fill="#203B72"/>
</g>
<defs>
<filter id="filter0_d_986_8682" x="0.670068" y="0.6" width="38.153" height="34.3294" filterUnits="userSpaceOnUse" color-interpolation-filters="sRGB">
<feFlood flood-opacity="0" result="BackgroundImageFix"/>
<feColorMatrix in="SourceAlpha" type="matrix" values="0 0 0 0 0 0 0 0 0 0 0 0 0 0 0 0 0 0 127 0" result="hardAlpha"/>
<feOffset dy="2"/>
<feGaussianBlur stdDeviation="1.7"/>
<feComposite in2="hardAlpha" operator="out"/>
<feColorMatrix type="matrix" values="0 0 0 0 0 0 0 0 0 0 0 0 0 0 0 0 0 0 0.25 0"/>
<feBlend mode="normal" in2="BackgroundImageFix" result="effect1_dropShadow_986_8682"/>
<feBlend mode="normal" in="SourceGraphic" in2="effect1_dropShadow_986_8682" result="shape"/>
</filter>
</defs>
</svg>
