<svg width="20" height="20" viewBox="0 0 20 20" fill="none" xmlns="http://www.w3.org/2000/svg">
<path d="M8.61591 12.1462L6.29281 9.82308C6.15436 9.68461 5.98032 9.61378 5.77071 9.61058C5.56109 9.60736 5.38385 9.67819 5.23898 9.82308C5.09411 9.96794 5.02168 10.1436 5.02168 10.35C5.02168 10.5564 5.09411 10.732 5.23898 10.8769L7.98321 13.6211C8.16397 13.8019 8.37487 13.8923 8.61591 13.8923C8.85692 13.8923 9.06781 13.8019 9.24858 13.6211L14.812 8.05765C14.9505 7.9192 15.0213 7.74517 15.0245 7.53555C15.0278 7.32593 14.9569 7.14869 14.812 7.00383C14.6672 6.85896 14.4915 6.78653 14.2851 6.78653C14.0787 6.78653 13.9031 6.85896 13.7582 7.00383L8.61591 12.1462ZM10.0368 19.5C8.72287 19.5 7.48784 19.2506 6.33171 18.752C5.17556 18.2533 4.16987 17.5765 3.31466 16.7217C2.45942 15.8669 1.78236 14.8616 1.28348 13.706C0.784598 12.5504 0.535156 11.3156 0.535156 10.0017C0.535156 8.68772 0.78449 7.45268 1.28316 6.29655C1.78182 5.1404 2.45857 4.13472 3.31341 3.2795C4.16826 2.42427 5.1735 1.74721 6.32913 1.24833C7.48475 0.749443 8.71952 0.5 10.0335 0.5C11.3474 0.5 12.5824 0.749334 13.7386 1.248C14.8947 1.74667 15.9004 2.42342 16.7556 3.27825C17.6108 4.1331 18.2879 5.13834 18.7868 6.29398C19.2857 7.44959 19.5351 8.68437 19.5351 9.9983C19.5351 11.3122 19.2858 12.5473 18.7871 13.7034C18.2884 14.8596 17.6117 15.8652 16.7569 16.7205C15.902 17.5757 14.8968 18.2527 13.7411 18.7516C12.5855 19.2505 11.3507 19.5 10.0368 19.5Z" fill="#019450"/>
</svg>
