<svg width="24" height="24" viewBox="0 0 24 24" fill="none" xmlns="http://www.w3.org/2000/svg">
<path d="M16.7269 13.9647C16.5704 13.8088 16.3171 13.8092 16.1612 13.9656C16.0052 14.1221 16.0056 14.3753 16.162 14.5313L16.7269 13.9647ZM17.9398 16.3036C18.0962 16.4596 18.3495 16.4592 18.5055 16.3028C18.6614 16.1463 18.661 15.893 18.5046 15.7371L17.9398 16.3036ZM16.162 15.7371C16.0056 15.8931 16.0052 16.1463 16.1612 16.3028C16.3171 16.4592 16.5704 16.4596 16.7269 16.3037L16.162 15.7371ZM18.5046 14.5313C18.661 14.3754 18.6614 14.1221 18.5055 13.9656C18.3495 13.8092 18.0962 13.8088 17.9398 13.9648L18.5046 14.5313ZM4.47208 8.38758L4.72999 8.08184L4.72999 8.08184L4.47208 8.38758ZM8.81952 12.055L8.5616 12.3607L8.81952 12.055ZM13.1805 12.055L13.4384 12.3607L13.4384 12.3607L13.1805 12.055ZM17.5279 8.38758L17.27 8.08184V8.08184L17.5279 8.38758ZM10.0652 19.4043L10.2706 19.7475L10.2706 19.7475L10.0652 19.4043ZM12.6208 17.8756L12.4154 17.5323L12.6208 17.8756ZM17.3333 17.3928C16.0803 17.3928 15.0667 16.3804 15.0667 15.1342H14.2667C14.2667 16.8245 15.6408 18.1928 17.3333 18.1928V17.3928ZM15.0667 15.1342C15.0667 13.888 16.0803 12.8757 17.3333 12.8757V12.0757C15.6408 12.0757 14.2667 13.4439 14.2667 15.1342H15.0667ZM17.3333 12.8757C18.5863 12.8757 19.6 13.888 19.6 15.1342H20.4C20.4 13.4439 19.0259 12.0757 17.3333 12.0757V12.8757ZM19.6 15.1342C19.6 16.3804 18.5863 17.3928 17.3333 17.3928V18.1928C19.0259 18.1928 20.4 16.8245 20.4 15.1342H19.6ZM16.162 14.5313L17.9398 16.3036L18.5046 15.7371L16.7269 13.9647L16.162 14.5313ZM16.7269 16.3037L18.5046 14.5313L17.9398 13.9648L16.162 15.7371L16.7269 16.3037ZM16.6667 4.1H5.33333V4.9H16.6667V4.1ZM4.21416 8.69332L8.5616 12.3607L9.07743 11.7492L4.72999 8.08184L4.21416 8.69332ZM13.4384 12.3607L17.7858 8.69332L17.27 8.08184L12.9226 11.7492L13.4384 12.3607ZM10.2706 19.7475L12.8261 18.2189L12.4154 17.5323L9.85988 19.061L10.2706 19.7475ZM13.3444 17.3057V12.5624H12.5444V17.3057H13.3444ZM8.65556 12.5624V18.8343H9.45556V12.5624H8.65556ZM12.8261 18.2189C13.1473 18.0267 13.3444 17.6802 13.3444 17.3057H12.5444C12.5444 17.398 12.4958 17.4842 12.4154 17.5323L12.8261 18.2189ZM9.85988 19.061C9.68032 19.1684 9.45556 19.0381 9.45556 18.8343H8.65556C8.65556 19.6638 9.56142 20.1717 10.2706 19.7475L9.85988 19.061ZM12.9226 11.7492C12.683 11.9514 12.5444 12.2487 12.5444 12.5624H13.3444C13.3444 12.485 13.3786 12.4112 13.4384 12.3607L12.9226 11.7492ZM8.5616 12.3607C8.62139 12.4112 8.65556 12.485 8.65556 12.5624H9.45556C9.45556 12.2487 9.31704 11.9514 9.07743 11.7492L8.5616 12.3607ZM16.6667 4.9C17.1833 4.9 17.6 5.3172 17.6 5.82928H18.4C18.4 4.87307 17.6228 4.1 16.6667 4.1V4.9ZM17.7858 8.69333C18.1752 8.36491 18.4 7.88195 18.4 7.37283H17.6C17.6 7.64573 17.4795 7.90512 17.27 8.08184L17.7858 8.69333ZM4.72999 8.08184C4.5205 7.90512 4.4 7.64573 4.4 7.37283H3.6C3.6 7.88195 3.82485 8.36491 4.21416 8.69332L4.72999 8.08184ZM5.33333 4.1C4.37719 4.1 3.6 4.87307 3.6 5.82928H4.4C4.4 5.3172 4.81672 4.9 5.33333 4.9V4.1ZM18.4 7.37283V5.82928H17.6V7.37283H18.4ZM3.6 5.82928V7.37283H4.4V5.82928H3.6Z" fill="#64748B"/>
</svg>
