<svg width="20" height="19" viewBox="0 0 20 19" fill="none" xmlns="http://www.w3.org/2000/svg">
<path fill-rule="evenodd" clip-rule="evenodd" d="M9.53516 19C14.7819 19 19.0352 14.7467 19.0352 9.5C19.0352 4.25329 14.7819 0 9.53516 0C4.28845 0 0.0351562 4.25329 0.0351562 9.5C0.0351562 14.7467 4.28845 19 9.53516 19ZM8.53933 13.8392C8.66338 13.9464 8.81068 14 8.98123 14H10.0891C10.2596 14 10.4069 13.9464 10.531 13.8392C10.655 13.732 10.7305 13.6001 10.7575 13.4434L10.8796 12.5525C11.0149 12.507 11.1469 12.4482 11.2758 12.3763C11.4047 12.3043 11.531 12.2215 11.6547 12.128L12.5106 12.4769C12.6677 12.5425 12.8264 12.5489 12.9867 12.496C13.147 12.4432 13.271 12.3473 13.3588 12.2082L13.9253 11.2872C14.0131 11.1482 14.0376 11.0011 13.9989 10.8459C13.9601 10.6908 13.874 10.5628 13.7406 10.462L12.9867 9.92451C13.0065 9.83887 13.0181 9.7628 13.0213 9.69631C13.0245 9.62981 13.0261 9.56437 13.0261 9.5C13.0261 9.43259 13.0253 9.36563 13.0237 9.29913C13.0221 9.23264 13.0123 9.16113 12.9944 9.0846L13.7628 8.53804C13.8961 8.43723 13.9814 8.30925 14.0186 8.15409C14.0558 7.99894 14.0304 7.85183 13.9426 7.71276L13.3839 6.79636C13.296 6.66033 13.1728 6.56514 13.0141 6.51078C12.8554 6.45644 12.6975 6.46205 12.5405 6.52764L11.6547 6.87198C11.531 6.77845 11.4084 6.69722 11.2869 6.62829C11.1654 6.55936 11.0296 6.49909 10.8796 6.44748L10.7575 5.55657C10.7305 5.3999 10.655 5.26797 10.531 5.16078C10.4069 5.05359 10.2596 5 10.0891 5H8.98123C8.81068 5 8.66338 5.05359 8.53933 5.16078C8.41528 5.26797 8.33978 5.3999 8.31286 5.55657L8.18591 6.44292C8.05384 6.48846 7.91936 6.54874 7.78247 6.62375C7.64559 6.69875 7.51688 6.78149 7.39634 6.87198L6.53466 6.52764C6.37759 6.46205 6.21971 6.45644 6.06103 6.51078C5.90236 6.56514 5.77911 6.66033 5.69127 6.79636L5.13253 7.7082C5.04469 7.84727 5.01856 7.99514 5.05414 8.15182C5.08973 8.30849 5.1742 8.43723 5.30755 8.53804L6.05672 9.07095C6.04518 9.15353 6.037 9.2296 6.03219 9.29913C6.02738 9.36867 6.02498 9.43715 6.02498 9.50456C6.02498 9.575 6.02738 9.64575 6.03219 9.71681C6.037 9.78786 6.04518 9.85861 6.05672 9.92905L5.30755 10.462C5.1742 10.5628 5.08893 10.6908 5.05174 10.8459C5.01456 11.0011 5.03989 11.1482 5.12772 11.2872L5.69127 12.2127C5.77911 12.3518 5.90236 12.4478 6.06103 12.5006C6.21971 12.5534 6.37759 12.5471 6.53466 12.4815L7.40116 12.1326C7.51207 12.22 7.6379 12.302 7.77863 12.3785C7.91936 12.4551 8.05673 12.5146 8.19072 12.5571L8.31286 13.4434C8.33978 13.6001 8.41528 13.732 8.53933 13.8392ZM10.6031 10.5061C10.3111 10.7827 9.95701 10.921 9.54092 10.921C9.11971 10.921 8.76437 10.7827 8.47489 10.5061C8.18543 10.2295 8.0407 9.89412 8.0407 9.5C8.0407 9.10588 8.18543 8.7705 8.47489 8.49388C8.76437 8.21726 9.11971 8.07896 9.54092 8.07896C9.95701 8.07896 10.3111 8.21726 10.6031 8.49388C10.8951 8.7705 11.0412 9.10588 11.0412 9.5C11.0412 9.89412 10.8951 10.2295 10.6031 10.5061Z" fill="#fff"/>
</svg>
