<svg width="20" height="20" viewBox="0 0 20 20" fill="none" xmlns="http://www.w3.org/2000/svg">
<path d="M6.03513 10.75H14.0351C14.2476 10.75 14.4258 10.6781 14.5695 10.5343C14.7132 10.3904 14.7851 10.2122 14.7851 9.99965C14.7851 9.78705 14.7132 9.60896 14.5695 9.46538C14.4258 9.32179 14.2476 9.25 14.0351 9.25H6.03513C5.82263 9.25 5.64452 9.3219 5.50078 9.4657C5.35703 9.60952 5.28516 9.78772 5.28516 10.0003C5.28516 10.2129 5.35703 10.391 5.50078 10.5346C5.64452 10.6782 5.82263 10.75 6.03513 10.75ZM10.0368 19.5C8.72287 19.5 7.48784 19.2506 6.33171 18.752C5.17556 18.2533 4.16987 17.5765 3.31466 16.7217C2.45942 15.8669 1.78236 14.8616 1.28348 13.706C0.784598 12.5504 0.535156 11.3156 0.535156 10.0017C0.535156 8.68772 0.78449 7.45268 1.28316 6.29655C1.78182 5.1404 2.45857 4.13472 3.31341 3.2795C4.16826 2.42427 5.1735 1.74721 6.32913 1.24833C7.48475 0.749443 8.71952 0.5 10.0335 0.5C11.3474 0.5 12.5824 0.749334 13.7386 1.248C14.8947 1.74667 15.9004 2.42342 16.7556 3.27825C17.6108 4.1331 18.2879 5.13834 18.7868 6.29398C19.2857 7.44959 19.5351 8.68437 19.5351 9.9983C19.5351 11.3122 19.2858 12.5473 18.7871 13.7034C18.2884 14.8596 17.6117 15.8652 16.7569 16.7205C15.902 17.5757 14.8968 18.2527 13.7411 18.7516C12.5855 19.2505 11.3507 19.5 10.0368 19.5Z" fill="#C63F3F"/>
</svg>
