<svg width="25" height="24" viewBox="0 0 25 24" fill="none" xmlns="http://www.w3.org/2000/svg">
<path d="M21.9204 1H18.9804C18.1104 1 17.4704 1.36 17.1804 2C17.0204 2.29 16.9504 2.63 16.9504 3.03V5.97C16.9504 7.24 17.7104 8 18.9804 8H21.9204C22.3204 8 22.6604 7.93 22.9504 7.77C23.5904 7.48 23.9504 6.84 23.9504 5.97V3.03C23.9504 1.76 23.1904 1 21.9204 1ZM22.8604 4.93C22.7604 5.03 22.6104 5.1 22.4504 5.11H21.0404V5.62L21.0504 6.5C21.0404 6.67 20.9804 6.81 20.8604 6.93C20.7604 7.03 20.6104 7.1 20.4504 7.1C20.1204 7.1 19.8504 6.83 19.8504 6.5V5.1L18.4504 5.11C18.1204 5.11 17.8504 4.83 17.8504 4.5C17.8504 4.17 18.1204 3.9 18.4504 3.9L19.3304 3.91H19.8504V2.51C19.8504 2.18 20.1204 1.9 20.4504 1.9C20.7804 1.9 21.0504 2.18 21.0504 2.51L21.0404 3.22V3.9H22.4504C22.7804 3.9 23.0504 4.17 23.0504 4.5C23.0404 4.67 22.9704 4.81 22.8604 4.93Z" fill="#64748B"/>
<path d="M9.95043 10.38C11.2649 10.38 12.3304 9.31443 12.3304 8C12.3304 6.68556 11.2649 5.62 9.95043 5.62C8.636 5.62 7.57043 6.68556 7.57043 8C7.57043 9.31443 8.636 10.38 9.95043 10.38Z" fill="#64748B"/>
<path d="M21.9204 8H21.4504V12.61L21.3204 12.5C20.5404 11.83 19.2804 11.83 18.5004 12.5L14.3404 16.07C13.5604 16.74 12.3004 16.74 11.5204 16.07L11.1804 15.79C10.4704 15.17 9.34044 15.11 8.54044 15.65L4.80044 18.16C4.58044 17.6 4.45044 16.95 4.45044 16.19V7.81C4.45044 4.99 5.94044 3.5 8.76044 3.5H16.9504V3.03C16.9504 2.63 17.0204 2.29 17.1804 2H8.76044C5.12044 2 2.95044 4.17 2.95044 7.81V16.19C2.95044 17.28 3.14044 18.23 3.51044 19.03C4.37044 20.93 6.21044 22 8.76044 22H17.1404C20.7804 22 22.9504 19.83 22.9504 16.19V7.77C22.6604 7.93 22.3204 8 21.9204 8Z" fill="#64748B"/>
</svg>
