<svg width="18" height="17" viewBox="0 0 18 17" fill="none" xmlns="http://www.w3.org/2000/svg">
<path d="M13.7975 10.3939C13.6019 10.199 13.2853 10.1994 13.0904 10.395C12.8954 10.5906 12.8959 10.9071 13.0914 11.1021L13.7975 10.3939ZM14.8692 12.8744C15.0647 13.0694 15.3813 13.0689 15.5763 12.8734C15.7712 12.6778 15.7708 12.3612 15.5752 12.1663L14.8692 12.8744ZM13.0914 12.1663C12.8959 12.3613 12.8954 12.6778 13.0904 12.8734C13.2853 13.069 13.6019 13.0694 13.7975 12.8745L13.0914 12.1663ZM15.5752 11.1021C15.7708 10.9072 15.7712 10.5906 15.5763 10.395C15.3813 10.1995 15.0647 10.199 14.8692 10.394L15.5752 11.1021ZM1.47208 4.88758L1.79447 4.5054L1.79447 4.5054L1.47208 4.88758ZM5.81952 8.55499L5.49712 8.93717L5.81952 8.55499ZM10.1805 8.55499L10.5029 8.93717V8.93717L10.1805 8.55499ZM14.5279 4.88758L14.2055 4.5054L14.2055 4.5054L14.5279 4.88758ZM7.06522 15.9043L7.32189 16.3334L7.32189 16.3334L7.06522 15.9043ZM9.62078 14.3756L9.3641 13.9465V13.9465L9.62078 14.3756ZM14.3333 13.7928C13.1353 13.7928 12.1667 12.8249 12.1667 11.6342H11.1667C11.1667 13.3801 12.5859 14.7928 14.3333 14.7928V13.7928ZM12.1667 11.6342C12.1667 10.4435 13.1353 9.47565 14.3333 9.47565V8.47565C12.5859 8.47565 11.1667 9.88835 11.1667 11.6342H12.1667ZM14.3333 9.47565C15.5314 9.47565 16.5 10.4435 16.5 11.6342H17.5C17.5 9.88835 16.0808 8.47565 14.3333 8.47565V9.47565ZM16.5 11.6342C16.5 12.8249 15.5314 13.7928 14.3333 13.7928V14.7928C16.0808 14.7928 17.5 13.3801 17.5 11.6342H16.5ZM13.0914 11.1021L14.8692 12.8744L15.5752 12.1663L13.7975 10.3939L13.0914 11.1021ZM13.7975 12.8745L15.5752 11.1021L14.8692 10.394L13.0914 12.1663L13.7975 12.8745ZM13.6667 0.5H2.33333V1.5H13.6667V0.5ZM1.14968 5.26976L5.49712 8.93717L6.14191 8.17281L1.79447 4.5054L1.14968 5.26976ZM10.5029 8.93717L14.8503 5.26976L14.2055 4.5054L9.85809 8.17281L10.5029 8.93717ZM7.32189 16.3334L9.87745 14.8047L9.3641 13.9465L6.80855 15.4752L7.32189 16.3334ZM10.4444 13.8057V9.06237H9.44444V13.8057H10.4444ZM5.55556 9.06236V15.3343H6.55556V9.06236H5.55556ZM9.87745 14.8047C10.2288 14.5945 10.4444 14.2155 10.4444 13.8057H9.44444C9.44444 13.8628 9.4144 13.9164 9.3641 13.9465L9.87745 14.8047ZM6.80855 15.4752C6.69518 15.543 6.55556 15.4599 6.55556 15.3343H5.55556C5.55556 16.242 6.54656 16.7971 7.32189 16.3334L6.80855 15.4752ZM9.85809 8.17281C9.596 8.3939 9.44444 8.71922 9.44444 9.06237H10.4444C10.4444 9.0145 10.4656 8.96865 10.5029 8.93717L9.85809 8.17281ZM5.49712 8.93717C5.53443 8.96865 5.55556 9.0145 5.55556 9.06236H6.55556C6.55556 8.71922 6.404 8.3939 6.14191 8.17281L5.49712 8.93717ZM13.6667 1.5C14.1283 1.5 14.5 1.87272 14.5 2.32928H15.5C15.5 1.31756 14.6778 0.5 13.6667 0.5V1.5ZM14.8503 5.26976C15.2621 4.92239 15.5 4.41148 15.5 3.87283H14.5C14.5 4.1162 14.3925 4.34764 14.2055 4.5054L14.8503 5.26976ZM1.79447 4.5054C1.60746 4.34764 1.5 4.1162 1.5 3.87283H0.5C0.5 4.41148 0.737893 4.92239 1.14968 5.26976L1.79447 4.5054ZM2.33333 0.5C1.32225 0.5 0.5 1.31756 0.5 2.32928H1.5C1.5 1.87272 1.87166 1.5 2.33333 1.5V0.5ZM15.5 3.87283V2.32928H14.5V3.87283H15.5ZM0.5 2.32928V3.87283H1.5V2.32928H0.5Z" fill="#053457"/>
</svg>
