<svg width="20" height="19" viewBox="0 0 20 19" fill="none" xmlns="http://www.w3.org/2000/svg">
<path d="M9.53516 7.73079C9.29926 7.73079 9.09284 7.81924 8.9159 7.99614C8.739 8.17308 8.65055 8.37949 8.65055 8.61539L8.65055 14.4231C8.65055 14.659 8.739 14.8654 8.9159 15.0423C9.09284 15.2193 9.29926 15.3077 9.53516 15.3077C9.77106 15.3077 9.97748 15.2193 10.1544 15.0423C10.3313 14.8654 10.4198 14.659 10.4198 14.4231L10.4198 8.61539C10.4198 8.37949 10.3313 8.17308 10.1544 7.99614C9.97748 7.81924 9.77106 7.73079 9.53516 7.73079ZM9.53516 3.61537C9.26849 3.61537 9.03515 3.71537 8.83515 3.91537C8.63515 4.11537 8.53515 4.34871 8.53515 4.61537C8.53515 4.88204 8.63515 5.11538 8.83515 5.31538C9.03515 5.51538 9.26849 5.61538 9.53516 5.61538C9.80183 5.61538 10.0352 5.51538 10.2352 5.31538C10.4352 5.11538 10.5352 4.88204 10.5352 4.61537C10.5352 4.34871 10.4352 4.11537 10.2352 3.91537C10.0352 3.71537 9.80183 3.61537 9.53516 3.61537ZM9.53231 1.90735e-06C12.1599 1.90735e-06 14.4006 0.925971 16.2544 2.77791C18.1082 4.62986 19.0352 6.8696 19.0352 9.49715C19.0352 12.1247 18.1092 14.3654 16.2572 16.2192C14.4053 18.0731 12.1656 19 9.53801 19C6.91046 19 4.66977 18.074 2.81593 16.2221C0.962085 14.3701 0.0351562 12.1304 0.0351562 9.50285C0.0351562 6.8753 0.961131 4.63461 2.81307 2.78077C4.66502 0.926923 6.90476 1.90735e-06 9.53231 1.90735e-06Z" fill="#FAAB35"/>
</svg>
