<svg width="10" height="10" viewBox="0 0 10 10" fill="none" xmlns="http://www.w3.org/2000/svg">
<path d="M5.04162 4.10399C4.91747 4.10311 4.8085 4.1489 4.71472 4.24135C4.62097 4.33381 4.57365 4.44212 4.57278 4.56628L4.55126 7.62288C4.55039 7.74703 4.59618 7.856 4.68862 7.94977C4.78109 8.04355 4.8894 8.09088 5.01356 8.09175C5.13771 8.09262 5.24668 8.04683 5.34046 7.95436C5.43421 7.8619 5.48153 7.75359 5.4824 7.62943L5.50392 4.57283C5.50479 4.44868 5.459 4.33971 5.36656 4.24593C5.27409 4.15217 5.16578 4.10486 5.04162 4.10399ZM5.05687 1.93803C4.91652 1.93704 4.79334 1.98881 4.68734 2.09333C4.58134 2.19785 4.52784 2.32028 4.52686 2.46063C4.52587 2.60098 4.57764 2.72415 4.68216 2.83015C4.78668 2.93616 4.90911 2.98965 5.04946 2.99064C5.18981 2.99163 5.31298 2.93986 5.41898 2.83534C5.52499 2.73082 5.57848 2.60838 5.57947 2.46804C5.58046 2.32769 5.52869 2.20451 5.42417 2.09851C5.31965 1.99251 5.19722 1.93902 5.05687 1.93803ZM5.06876 0.0352385C6.45164 0.0449713 7.6275 0.540611 8.59632 1.52216C9.56514 2.50371 10.0447 3.68593 10.035 5.06881C10.0252 6.4517 9.52958 7.62755 8.54803 8.59638C7.56648 9.5652 6.38427 10.0447 5.00138 10.035C3.6185 10.0253 2.44264 9.52964 1.47382 8.54809C0.504999 7.56654 0.0254498 6.38432 0.0351826 5.00144C0.0449154 3.61855 0.540558 2.4427 1.52211 1.47387C2.50366 0.50505 3.68587 0.0255057 5.06876 0.0352385Z" fill="white"/>
</svg>
