<svg width="11" height="10" viewBox="0 0 11 10" fill="none" xmlns="http://www.w3.org/2000/svg">
<path d="M2.9648 5.39472H7.17534C7.28718 5.39472 7.38093 5.35688 7.45659 5.2812C7.53224 5.2055 7.57006 5.11171 7.57006 4.99983C7.57006 4.88793 7.53224 4.7942 7.45659 4.71863C7.38093 4.64306 7.28718 4.60528 7.17534 4.60528H2.9648C2.85296 4.60528 2.75921 4.64312 2.68356 4.7188C2.6079 4.7945 2.57007 4.88828 2.57007 5.00017C2.57007 5.11207 2.6079 5.2058 2.68356 5.28137C2.75921 5.35694 2.85296 5.39472 2.9648 5.39472ZM5.07095 10C4.3794 10 3.72938 9.86877 3.12089 9.60631C2.51239 9.34386 1.98308 8.98767 1.53297 8.53776C1.08284 8.08784 0.726496 7.55876 0.463925 6.95053C0.201354 6.34231 0.0700684 5.69243 0.0700684 5.00088C0.0700684 4.30934 0.201297 3.65932 0.463754 3.05082C0.72621 2.44232 1.0824 1.91301 1.53231 1.4629C1.98223 1.01278 2.51131 0.656428 3.11954 0.393857C3.72776 0.131286 4.37764 0 5.06919 0C5.76073 0 6.41075 0.131229 7.01925 0.393686C7.62775 0.656143 8.15705 1.01233 8.60717 1.46224C9.05729 1.91216 9.41364 2.44124 9.67621 3.04947C9.93878 3.65769 10.0701 4.30757 10.0701 4.99912C10.0701 5.69066 9.93884 6.34068 9.67638 6.94918C9.41393 7.55768 9.05774 8.08699 8.60783 8.5371C8.15791 8.98722 7.62883 9.34357 7.0206 9.60614C6.41238 9.86871 5.7625 10 5.07095 10Z" fill="white"/>
</svg>
