<svg width="24" height="24" viewBox="0 0 24 24" fill="none" xmlns="http://www.w3.org/2000/svg">
<mask id="mask0_1291_2853" style="mask-type:alpha" maskUnits="userSpaceOnUse" x="0" y="0" width="24" height="24">
<rect width="24" height="24" fill="#D9D9D9"/>
</mask>
<g mask="url(#mask0_1291_2853)">
<path fill-rule="evenodd" clip-rule="evenodd" d="M11.5 22C16.7467 22 21 17.7467 21 12.5C21 7.25329 16.7467 3 11.5 3C6.25329 3 2 7.25329 2 12.5C2 17.7467 6.25329 22 11.5 22ZM10.5042 16.8392C10.6282 16.9464 10.7755 17 10.9461 17H12.0539C12.2245 17 12.3718 16.9464 12.4958 16.8392C12.6199 16.732 12.6954 16.6001 12.7223 16.4434L12.8444 15.5525C12.9797 15.507 13.1118 15.4482 13.2407 15.3763C13.3695 15.3043 13.4958 15.2215 13.6196 15.128L14.4755 15.4769C14.6326 15.5425 14.7912 15.5489 14.9515 15.496C15.1118 15.4432 15.2359 15.3473 15.3237 15.2082L15.8901 14.2872C15.978 14.1482 16.0025 14.0011 15.9637 13.8459C15.9249 13.6908 15.8388 13.5628 15.7055 13.462L14.9515 12.9245C14.9714 12.8389 14.9829 12.7628 14.9861 12.6963C14.9893 12.6298 14.9909 12.5644 14.9909 12.5C14.9909 12.4326 14.9901 12.3656 14.9885 12.2991C14.9869 12.2326 14.9772 12.1611 14.9592 12.0846L15.7276 11.538C15.861 11.4372 15.9462 11.3092 15.9834 11.1541C16.0206 10.9989 15.9953 10.8518 15.9074 10.7128L15.3487 9.79636C15.2609 9.66033 15.1376 9.56514 14.9789 9.51078C14.8203 9.45644 14.6624 9.46205 14.5053 9.52764L13.6196 9.87198C13.4958 9.77845 13.3732 9.69722 13.2517 9.62829C13.1302 9.55936 12.9945 9.49909 12.8444 9.44748L12.7223 8.55657C12.6954 8.3999 12.6199 8.26797 12.4958 8.16078C12.3718 8.05359 12.2245 8 12.0539 8H10.9461C10.7755 8 10.6282 8.05359 10.5042 8.16078C10.3801 8.26797 10.3046 8.3999 10.2777 8.55657L10.1508 9.44292C10.0187 9.48846 9.8842 9.54874 9.74731 9.62375C9.61043 9.69875 9.48172 9.78149 9.36119 9.87198L8.49951 9.52764C8.34243 9.46205 8.18455 9.45644 8.02588 9.51078C7.8672 9.56514 7.74395 9.66033 7.65612 9.79636L7.09738 10.7082C7.00954 10.8473 6.98341 10.9951 7.01899 11.1518C7.05458 11.3085 7.13905 11.4372 7.27239 11.538L8.02157 12.0709C8.01002 12.1535 8.00185 12.2296 7.99704 12.2991C7.99223 12.3687 7.98982 12.4371 7.98982 12.5046C7.98982 12.575 7.99223 12.6458 7.99704 12.7168C8.00185 12.7879 8.01002 12.8586 8.02157 12.9291L7.27239 13.462C7.13905 13.5628 7.05378 13.6908 7.01659 13.8459C6.97941 14.0011 7.00473 14.1482 7.09256 14.2872L7.65612 15.2127C7.74395 15.3518 7.8672 15.4478 8.02588 15.5006C8.18455 15.5534 8.34243 15.5471 8.49951 15.4815L9.366 15.1326C9.47692 15.22 9.60274 15.302 9.74347 15.3785C9.88421 15.4551 10.0216 15.5146 10.1556 15.5571L10.2777 16.4434C10.3046 16.6001 10.3801 16.732 10.5042 16.8392ZM12.568 13.5061C12.2759 13.7827 11.9219 13.921 11.5058 13.921C11.0846 13.921 10.7292 13.7827 10.4397 13.5061C10.1503 13.2295 10.0055 12.8941 10.0055 12.5C10.0055 12.1059 10.1503 11.7705 10.4397 11.4939C10.7292 11.2173 11.0846 11.079 11.5058 11.079C11.9219 11.079 12.2759 11.2173 12.568 11.4939C12.86 11.7705 13.006 12.1059 13.006 12.5C13.006 12.8941 12.86 13.2295 12.568 13.5061Z" fill="#A0A0A0"/>
</g>
</svg>
