<svg width="19" height="13" viewBox="0 0 19 13" fill="none" xmlns="http://www.w3.org/2000/svg">
<path d="M1.01302 12.6226C0.808373 12.6226 0.636827 12.5505 0.498387 12.4065C0.359946 12.2625 0.290726 12.084 0.290726 11.871C0.290726 11.6581 0.359946 11.4797 0.498387 11.3359C0.636827 11.1921 0.808373 11.1202 1.01302 11.1202H8.9861C9.19075 11.1202 9.36229 11.1922 9.50073 11.3362C9.63917 11.4803 9.7084 11.6588 9.7084 11.8717C9.7084 12.0846 9.63917 12.263 9.50073 12.4068C9.36229 12.5507 9.19075 12.6226 8.9861 12.6226H1.01302ZM1.01302 7.72045C0.808373 7.72045 0.636827 7.64843 0.498387 7.5044C0.359946 7.36035 0.290726 7.18187 0.290726 6.96894C0.290726 6.756 0.359946 6.57762 0.498387 6.4338C0.636827 6.28999 0.808373 6.21808 1.01302 6.21808H4.12447C4.32912 6.21808 4.50067 6.2901 4.63911 6.43413C4.77753 6.57818 4.84675 6.75667 4.84675 6.96962C4.84675 7.18254 4.77753 7.36091 4.63911 7.50473C4.50067 7.64854 4.32912 7.72045 4.12447 7.72045H1.01302ZM1.01302 2.81834C0.808373 2.81834 0.636827 2.74632 0.498387 2.60229C0.359946 2.45824 0.290726 2.27976 0.290726 2.06683C0.290726 1.85389 0.359946 1.67551 0.498387 1.5317C0.636827 1.38788 0.808373 1.31597 1.01302 1.31597H4.12447C4.32912 1.31597 4.50067 1.388 4.63911 1.53205C4.77753 1.67608 4.84675 1.85457 4.84675 2.06751C4.84675 2.28043 4.77753 2.4588 4.63911 2.60262C4.50067 2.74643 4.32912 2.81834 4.12447 2.81834H1.01302ZM11.3289 9.64662C10.1222 9.64662 9.09361 9.2081 8.24311 8.33106C7.39262 7.45401 6.96737 6.38852 6.96737 5.13459C6.96737 3.88067 7.39283 2.81519 8.24377 1.93813C9.09468 1.06108 10.1238 0.622559 11.3311 0.622559C12.5384 0.622559 13.5668 1.06108 14.4162 1.93813C15.2657 2.81519 15.6905 3.87907 15.6905 5.12978C15.6905 5.59463 15.6207 6.05209 15.4812 6.50217C15.3416 6.95226 15.1354 7.36478 14.8626 7.73973L18.0815 11.0585C18.221 11.1951 18.2907 11.3689 18.2907 11.5799C18.2907 11.7909 18.221 11.969 18.0815 12.1141C17.9502 12.2528 17.7831 12.3221 17.5802 12.3221C17.3773 12.3221 17.2061 12.2528 17.0665 12.1141L13.8477 8.79525C13.481 9.07263 13.0812 9.28387 12.6485 9.42897C12.2157 9.57407 11.7759 9.64662 11.3289 9.64662ZM11.3289 8.14426C12.1392 8.14426 12.8279 7.85212 13.3951 7.26785C13.9623 6.68357 14.2459 5.97249 14.2459 5.13459C14.2459 4.29671 13.9623 3.58563 13.3951 3.00136C12.8279 2.41709 12.1392 2.12495 11.3289 2.12495C10.5186 2.12495 9.82991 2.41709 9.26271 3.00136C8.69552 3.58563 8.41192 4.29671 8.41192 5.13459C8.41192 5.97249 8.69552 6.68357 9.26271 7.26785C9.82991 7.85212 10.5186 8.14426 11.3289 8.14426Z" fill="#94A3B8"/>
</svg>
