<svg width="11" height="10" viewBox="0 0 11 10" fill="none" xmlns="http://www.w3.org/2000/svg">
<path fill-rule="evenodd" clip-rule="evenodd" d="M5.07007 10C7.83149 10 10.0701 7.76142 10.0701 5C10.0701 2.23858 7.83149 0 5.07007 0C2.30864 0 0.0700684 2.23858 0.0700684 5C0.0700684 7.76142 2.30864 10 5.07007 10ZM4.40618 7.89281C4.48889 7.96427 4.58709 8 4.70078 8H5.43935C5.55305 8 5.65125 7.96427 5.73395 7.89281C5.81666 7.82135 5.86698 7.7334 5.88494 7.62895L5.96636 7.03502C6.05654 7.00465 6.1446 6.96548 6.23051 6.9175C6.31642 6.86953 6.40063 6.81437 6.48312 6.75201L7.05373 6.98461C7.15844 7.02833 7.26423 7.03259 7.37108 6.99737C7.47794 6.96214 7.56064 6.89817 7.6192 6.80546L7.99682 6.19149C8.05538 6.09878 8.07173 6.00071 8.04587 5.89727C8.02001 5.79383 7.96263 5.70851 7.87373 5.64131L7.37107 5.283C7.38432 5.22591 7.39202 5.1752 7.39416 5.13087C7.39629 5.08654 7.39736 5.04292 7.39736 5C7.39736 4.95506 7.39683 4.91042 7.39576 4.86609C7.39469 4.82176 7.38817 4.77408 7.37621 4.72307L7.88847 4.35869C7.97737 4.29149 8.03422 4.20617 8.05901 4.10273C8.0838 3.99929 8.06691 3.90122 8.00836 3.80851L7.63587 3.19757C7.57731 3.10689 7.49514 3.04343 7.38936 3.00719C7.28357 2.97096 7.17832 2.9747 7.07361 3.01842L6.48312 3.24799C6.40063 3.18563 6.31888 3.13148 6.23789 3.08553C6.15688 3.03958 6.06637 2.99939 5.96636 2.96498L5.88494 2.37105C5.86698 2.2666 5.81666 2.17865 5.73395 2.10719C5.65125 2.03573 5.55305 2 5.43935 2H4.70078C4.58709 2 4.48889 2.03573 4.40618 2.10719C4.32348 2.17865 4.27315 2.2666 4.2552 2.37105L4.17057 2.96194C4.08252 2.99231 3.99287 3.03249 3.90161 3.0825C3.81036 3.1325 3.72455 3.18766 3.64419 3.24799L3.06974 3.01842C2.96502 2.9747 2.85977 2.97096 2.75399 3.00719C2.6482 3.04343 2.56603 3.10689 2.50748 3.19757L2.13499 3.80547C2.07643 3.89818 2.05901 3.99676 2.08273 4.10121C2.10645 4.20566 2.16277 4.29149 2.25166 4.35869L2.75111 4.71396C2.74342 4.76902 2.73797 4.81973 2.73476 4.86609C2.73155 4.91245 2.72995 4.9581 2.72995 5.00304C2.72995 5.05 2.73155 5.09717 2.73476 5.14454C2.73797 5.19191 2.74342 5.23907 2.75111 5.28604L2.25166 5.64131C2.16277 5.70851 2.10592 5.79383 2.08113 5.89727C2.05634 6.00071 2.07322 6.09878 2.13178 6.19149L2.50748 6.8085C2.56603 6.90121 2.6482 6.96518 2.75399 7.0004C2.85977 7.03562 2.96502 7.03137 3.06974 6.98765L3.6474 6.75505C3.72135 6.81335 3.80523 6.86801 3.89905 6.91903C3.99287 6.97004 4.08445 7.00971 4.17378 7.03806L4.2552 7.62895C4.27315 7.7334 4.32348 7.82135 4.40618 7.89281ZM5.78204 5.67075C5.58735 5.85516 5.35131 5.94736 5.07391 5.94736C4.7931 5.94736 4.55621 5.85516 4.36323 5.67075C4.17025 5.48633 4.07376 5.26275 4.07376 5C4.07376 4.73725 4.17025 4.51367 4.36323 4.32925C4.55621 4.14484 4.7931 4.05264 5.07391 4.05264C5.35131 4.05264 5.58735 4.14484 5.78204 4.32925C5.97672 4.51367 6.07407 4.73725 6.07407 5C6.07407 5.26275 5.97672 5.48633 5.78204 5.67075Z" fill="white"/>
</svg>
