<svg width="18" height="18" viewBox="0 0 18 18" fill="none" xmlns="http://www.w3.org/2000/svg">
<path d="M10.9688 7.03125H7.03125V10.9688H10.9688V7.03125Z" stroke="#0C4DA2" stroke-width="1.5" stroke-linecap="round" stroke-linejoin="round"/>
<path d="M14.0625 3.375H3.9375C3.62684 3.375 3.375 3.62684 3.375 3.9375V14.0625C3.375 14.3732 3.62684 14.625 3.9375 14.625H14.0625C14.3732 14.625 14.625 14.3732 14.625 14.0625V3.9375C14.625 3.62684 14.3732 3.375 14.0625 3.375Z" stroke="#0C4DA2" stroke-width="1.5" stroke-linecap="round" stroke-linejoin="round"/>
<path d="M14.625 7.3125H16.3125" stroke="#0C4DA2" stroke-width="1.5" stroke-linecap="round" stroke-linejoin="round"/>
<path d="M14.625 10.6875H16.3125" stroke="#0C4DA2" stroke-width="1.5" stroke-linecap="round" stroke-linejoin="round"/>
<path d="M1.6875 7.3125H3.375" stroke="#0C4DA2" stroke-width="1.5" stroke-linecap="round" stroke-linejoin="round"/>
<path d="M1.6875 10.6875H3.375" stroke="#0C4DA2" stroke-width="1.5" stroke-linecap="round" stroke-linejoin="round"/>
<path d="M10.6875 14.625V16.3125" stroke="#0C4DA2" stroke-width="1.5" stroke-linecap="round" stroke-linejoin="round"/>
<path d="M7.3125 14.625V16.3125" stroke="#0C4DA2" stroke-width="1.5" stroke-linecap="round" stroke-linejoin="round"/>
<path d="M10.6875 1.6875V3.375" stroke="#0C4DA2" stroke-width="1.5" stroke-linecap="round" stroke-linejoin="round"/>
<path d="M7.3125 1.6875V3.375" stroke="#0C4DA2" stroke-width="1.5" stroke-linecap="round" stroke-linejoin="round"/>
</svg>
