<svg width="16" height="16" viewBox="0 0 16 16" fill="none" xmlns="http://www.w3.org/2000/svg">
<path d="M10.1053 1.52381H5.05263V0H10.1053V1.52381ZM8.42105 13.7143C8.42105 14.499 8.64 15.2381 9.01895 15.8705C8.55579 15.9543 8.07579 16 7.57895 16C5.56889 16 3.64115 15.2776 2.21982 13.9916C0.798494 12.7056 0 10.9615 0 9.14286C0 7.32423 0.798494 5.58009 2.21982 4.29413C3.64115 3.00816 5.56889 2.28571 7.57895 2.28571C9.36421 2.28571 11.0063 2.84952 12.3116 3.80952L13.5074 2.71238C13.9368 3.04762 14.3158 3.3981 14.6947 3.78667L13.4989 4.86857C14.5735 6.08096 15.1588 7.58878 15.1579 9.14286V9.40952C14.6189 9.24191 14.0632 9.14286 13.4737 9.14286C10.6863 9.14286 8.42105 11.1924 8.42105 13.7143ZM8.42105 4.57143H6.73684V9.90476H8.42105V4.57143ZM11.7895 11.4286V16L16 13.7143L11.7895 11.4286Z" fill="#0C4DA2"/>
</svg>
