<svg width="15" height="16" viewBox="0 0 19 20" fill="none" xmlns="http://www.w3.org/2000/svg">
<path d="M11.89 1.45H6.10996C5.70996 1.45 5.38996 1.13 5.38996 0.73C5.38996 0.33 5.70996 0 6.10996 0H11.89C12.29 0 12.61 0.320001 12.61 0.720001C12.61 1.12 12.29 1.45 11.89 1.45Z" fill="#F2434B"/>
<path d="M11 17.97V15.03C11 13.22 12.22 12 14.03 12H16.97C17.2 12 17.42 12.02 17.63 12.06C17.65 11.82 17.67 11.58 17.67 11.33C17.67 6.54 13.78 2.65 8.99996 2.65C4.21996 2.65 0.329956 6.54 0.329956 11.33C0.329956 16.11 4.21996 20 8.99996 20C9.84996 20 10.66 19.86 11.44 19.64C11.16 19.17 11 18.61 11 17.97ZM9.74996 11C9.74996 11.41 9.40996 11.75 8.99996 11.75C8.58996 11.75 8.24996 11.41 8.24996 11V6C8.24996 5.59 8.58996 5.25 8.99996 5.25C9.40996 5.25 9.74996 5.59 9.74996 6V11Z" fill="#F2434B"/>
<path fill-rule="evenodd" clip-rule="evenodd" d="M14.03 13H16.9699C18.2399 13 19 13.76 19 15.03V17.97C19 19.24 18.2399 20 16.9699 20H14.03C12.76 20 12 19.24 12 17.97V15.03C12 13.76 12.76 13 14.03 13ZM16.2392 14.5555C16.2392 14.2488 15.9687 14 15.6347 14C15.3007 14 15.03 14.2488 15.03 14.5555V16.7777C15.03 17.0846 15.3007 17.3334 15.6347 17.3334C15.9687 17.3334 16.2392 17.0846 16.2392 16.7777V14.5555ZM15.6044 17.8889C15.2707 17.8889 15 18.1376 15 18.4445V18.5C15 18.8068 15.2705 19.0554 15.6044 19.0555H15.6648C15.8249 19.0555 15.9787 18.9971 16.0922 18.8928C16.2058 18.7887 16.2695 18.6473 16.2695 18.5V18.4445C16.2695 18.1376 15.9987 17.8889 15.6648 17.8889H15.6044Z" fill="#F2434B"/>
</svg>
