<svg width="15" height="15" viewBox="0 0 15 15" fill="none" xmlns="http://www.w3.org/2000/svg">
<path fill-rule="evenodd" clip-rule="evenodd" d="M5.83471 0.185821C6.86665 -0.048432 7.93652 -0.061354 8.97382 0.147907C10.0111 0.357168 10.9923 0.783861 11.8527 1.39987C12.7131 2.01588 13.4333 2.80722 13.9656 3.72176C14.498 4.63629 14.8305 5.65325 14.9413 6.70564C14.9608 6.89087 14.9059 7.07626 14.7887 7.22102C14.6715 7.36578 14.5016 7.45806 14.3164 7.47755C14.1311 7.49704 13.9457 7.44215 13.801 7.32495C13.6562 7.20776 13.5639 7.03786 13.5445 6.85262C13.4241 5.70915 12.9823 4.62317 12.2701 3.72047C11.558 2.81778 10.6046 2.1353 9.52059 1.75211C8.43654 1.36891 7.2661 1.30067 6.14486 1.55529C5.02362 1.80991 3.99745 2.37698 3.18522 3.1908C2.373 4.00462 1.80795 5.0319 1.55552 6.15364C1.3031 7.27537 1.37364 8.44567 1.75896 9.52898C2.14428 10.6123 2.82862 11.5643 3.73271 12.2746C4.6368 12.985 5.72365 13.4247 6.86736 13.5428C6.95975 13.5514 7.04952 13.5783 7.13147 13.6218C7.21343 13.6653 7.28595 13.7247 7.34483 13.7964C7.40372 13.8681 7.44781 13.9508 7.47455 14.0396C7.50129 14.1285 7.51015 14.2218 7.50063 14.3141C7.4911 14.4064 7.46337 14.4959 7.41904 14.5774C7.37472 14.6589 7.31467 14.7308 7.24238 14.789C7.17008 14.8472 7.08698 14.8904 6.99786 14.9163C6.90874 14.9422 6.81538 14.9501 6.72318 14.9397C4.95646 14.7579 3.31183 13.9542 2.08283 12.6721C0.853825 11.3899 0.120442 9.71275 0.0135777 7.93992C-0.0932869 6.16709 0.433321 4.41397 1.49941 2.99348C2.5655 1.57299 4.10168 0.577567 5.83377 0.184885L5.83471 0.185821ZM7.49275 2.80817C7.67897 2.80817 7.85757 2.88214 7.98925 3.01382C8.12093 3.1455 8.19491 3.3241 8.19491 3.51033V8.42547H4.45004C4.26382 8.42547 4.08522 8.35149 3.95354 8.21981C3.82186 8.08813 3.74788 7.90953 3.74788 7.72331C3.74788 7.53708 3.82186 7.35848 3.95354 7.2268C4.08522 7.09512 4.26382 7.02114 4.45004 7.02114H6.79059V3.51033C6.79059 3.3241 6.86456 3.1455 6.99624 3.01382C7.12793 2.88214 7.30652 2.80817 7.49275 2.80817ZM9.57115 9.56765C9.70281 9.43616 9.88127 9.3623 10.0673 9.3623C10.2534 9.3623 10.4319 9.43616 10.5635 9.56765L12.1738 11.1779L13.7841 9.56765C13.8484 9.49867 13.9259 9.44333 14.0121 9.40496C14.0982 9.36658 14.1912 9.34594 14.2855 9.34428C14.3797 9.34262 14.4734 9.35996 14.5608 9.39527C14.6482 9.43059 14.7277 9.48315 14.7943 9.54983C14.861 9.61651 14.9136 9.69593 14.9489 9.78336C14.9842 9.87079 15.0016 9.96444 14.9999 10.0587C14.9982 10.153 14.9776 10.246 14.9392 10.3321C14.9008 10.4182 14.8455 10.4958 14.7765 10.56L13.1662 12.1703L14.7765 13.7806C14.8455 13.8449 14.9008 13.9224 14.9392 14.0086C14.9776 14.0947 14.9982 14.1877 14.9999 14.282C15.0016 14.3762 14.9842 14.4699 14.9489 14.5573C14.9136 14.6447 14.861 14.7242 14.7943 14.7908C14.7277 14.8575 14.6482 14.9101 14.5608 14.9454C14.4734 14.9807 14.3797 14.9981 14.2855 14.9964C14.1912 14.9947 14.0982 14.9741 14.0121 14.9357C13.9259 14.8973 13.8484 14.842 13.7841 14.773L12.1738 13.1627L10.5635 14.773C10.4993 14.842 10.4217 14.8973 10.3356 14.9357C10.2495 14.9741 10.1565 14.9947 10.0622 14.9964C9.96794 14.9981 9.87429 14.9807 9.78686 14.9454C9.69943 14.9101 9.62 14.8575 9.55333 14.7908C9.48665 14.7242 9.43409 14.6447 9.39877 14.5573C9.36346 14.4699 9.34611 14.3762 9.34778 14.282C9.34944 14.1877 9.37008 14.0947 9.40845 14.0086C9.44683 13.9224 9.50216 13.8449 9.57115 13.7806L11.1814 12.1703L9.57115 10.56C9.43966 10.4284 9.3658 10.2499 9.3658 10.0638C9.3658 9.87777 9.43966 9.69931 9.57115 9.56765Z" fill="#B00303"/>
</svg>
