<svg width="9" height="17" viewBox="0 0 9 17" fill="none" xmlns="http://www.w3.org/2000/svg">
<path d="M2.34689 8.50544L8.67703 14.707C8.89234 14.918 8.99641 15.1641 8.98923 15.4453C8.98206 15.7266 8.87081 15.9727 8.6555 16.1836C8.44019 16.3945 8.189 16.5 7.90191 16.5C7.61483 16.5 7.36364 16.3945 7.14833 16.1836L0.516746 9.70779C0.344498 9.53904 0.215311 9.3492 0.129187 9.13826C0.0430622 8.92732 0 8.71638 0 8.50544C0 8.29451 0.0430622 8.08357 0.129187 7.87263C0.215311 7.66169 0.344498 7.47185 0.516746 7.3031L7.14833 0.806201C7.36364 0.595262 7.61842 0.493309 7.91268 0.50034C8.20694 0.507371 8.46172 0.616356 8.67703 0.827294C8.89234 1.03823 9 1.28433 9 1.56558C9 1.84683 8.89234 2.09292 8.67703 2.30386L2.34689 8.50544Z" fill="#394B76"/>
</svg>
